<?xml version="1.0" encoding="utf-8"?>
<!-- Generator: Adobe Illustrator 25.2.3, SVG Export Plug-In . SVG Version: 6.00 Build 0)  -->
<svg version="1.1" xmlns="http://www.w3.org/2000/svg" xmlns:xlink="http://www.w3.org/1999/xlink" x="0px" y="0px"
	 viewBox="0 0 1280 285.3" style="enable-background:new 0 0 1280 285.3;" xml:space="preserve">
<style type="text/css">
	.st0{fill:#FFFFFF;}
	.st1{fill:#D59222;}
	.st2{fill:#FECCB3;}
	.st3{fill:#FA6D70;}
	.st4{fill:#D4D5D5;}
	.st5{fill:#EEEEEE;}
	.st6{fill:#61D190;}
</style>
<g id="Layer_1">
	<rect x="163.5" class="st0" width="953" height="285"/>
	<g>
		<path id="color_6" class="st1" d="M778.8,274.9l0.4-1.4l12.7,11.6h-15.7l2.1-11.6C778.5,274.4,778.8,274.9,778.8,274.9z
			 M778.2,273.5c0.3,0.9,0.5,1.4,0.5,1.4l0.4-1.4l-0.8-0.7L778.2,273.5z M781.5,101.1c0,1.8-0.4,3.6-1.2,5.2c0.8-1.6,2-1.5,3.1-5.1
			c0.2-0.8,0.4-1.5,0.6-2.3c-0.8-0.6-1.6-1.2-2.5-1.7V101.1z M778.2,96.6c2.3,1.3,2.1,9.7,2.1,9.7c0.8-1.6,1.2-3.4,1.2-5.2v-3.8
			c-2.6-1.7-5.5-3-8.5-3.9c2.1,2.5,2.2,4.3,2.2,5.4c0,0.9,0.1,1.8,0.3,2.7h0.1C776,100.5,777,95.9,778.2,96.6z M738.5,273.7l0.1,0.1
			l-0.1-0.5V273.7z M738,272.7l-0.4,0.4c0.3,0.2,0.5,0.3,0.8,0.5L738,272.7z M738.5,273.9l-0.1-0.2c-0.3-0.2-0.5-0.3-0.8-0.5
			l-12.5,11.9l15.7-0.3l-2.2-11l-0.1-0.1V273.9z M738.5,273.7v-0.4l-0.2-0.8l-0.3,0.3L738.5,273.7z M738.5,273.9v-0.2
			c-0.1,0-0.1,0-0.1-0.1l0,0L738.5,273.9z"/>
		<path id="color_5" class="st2" d="M778.2,96.6c-1.2-0.7-2.5,3.9-2.7,4.8l0,0c-0.2-0.9-0.3-1.7-0.3-2.6c0-1.1-0.1-2.8-2.2-5.4
			l-1.1-0.3c-4.6-1.3-9.3-1.6-14-1c-0.1,0.6-0.2,1.3-0.2,1.9v7.1c0,3.6,0.2,6.9,1.6,9.1c0.9,1.5,2.4,2.5,4.1,2.6v7.8h0.4
			c1.4,3.1,4.5,5,7.9,4.8c3.4,0.1,6.5-1.8,7.9-4.8h0.3v-13.5c0.2-0.2,0.3-0.5,0.4-0.8C780.3,106.3,780.5,97.9,778.2,96.6z M761,98.7
			c-0.4,0-0.7-0.6-0.6-1.3c0.1-0.7,0.4-1.2,0.9-1.1s0.7,0.6,0.6,1.3C761.8,98.3,761.5,98.7,761,98.7z M769.6,98.7
			c-0.4,0-0.7-0.6-0.6-1.3c0.1-0.7,0.4-1.2,0.9-1.1s0.7,0.6,0.6,1.3S770,98.7,769.6,98.7L769.6,98.7z M695.5,150.3
			c0,2.3-1.2,4.4-3.1,5.6c-1.1,0.6-2.3,1-3.5,1c-3.6,0-6.6-2.9-6.6-6.6l0,0l0,0c0-3.5,2.8-6.4,6.3-6.6h0.3
			C692.5,143.7,695.5,146.6,695.5,150.3L695.5,150.3L695.5,150.3z M773.5,169.7c-0.5,0.3-1,0.3-1.5,0.1c-0.4-0.2-0.9-0.6-1.5-1
			c-4.7-4-12.1-16.1-14.6-25.3c-0.3-1.2-0.6-2.4-0.8-3.6c-0.5-0.2-0.9-0.5-1.3-0.8c-2.8-2.3-3.2-6.4-0.9-9.2l0,0l0.1-0.1
			c0.7-1,1.8-1.7,3-2c1.3-0.4,2.8-0.4,4.1,0c0.8,0.2,1.5,0.6,2.1,1.2c0.4,0.4,0.8,0.8,1.1,1.2c0.3,0.5,0.6,1,0.8,1.5
			c0.9,2.2,0.4,4.7-1.1,6.5c-0.1,0.2-0.3,0.3-0.4,0.5c2,2,3.7,4.1,3.7,4.1s3.7,3.6,7,7.4C773.1,152.2,773.5,165.9,773.5,169.7
			L773.5,169.7z"/>
		<path id="color_4" class="st3" d="M759.5,110.1c-6.4-3.6-10.7-8.9-11.3-14.1l0,0c-0.2-1.5-0.2-3,0.2-4.5c1.3-4.6,5.7-7.9,11.7-9.2
			c3.2-4.5,14-7,20.8-1.7c3,2.4,4.2,4.8,4.6,6.7c5.3,3.4,8.9,8,9.6,12.6c0.3,1.7,0.3,3.4-0.1,5c-1.5,5.5-7.4,9-15,9.7V107
			c0.2-0.2,0.3-0.5,0.4-0.8c0.8-1.6,2-1.5,3.1-5.1c0.2-0.8,0.4-1.5,0.6-2.3c-0.8-0.6-1.6-1.2-2.5-1.7c-2.6-1.7-5.5-3-8.5-3.9
			l-1.1-0.3c-4.6-1.3-9.3-1.6-14-1c-0.1,0.6-0.2,1.3-0.2,1.9v7.1C757.8,104.7,758,108,759.5,110.1z M794.2,120.6h-14.5
			c-1.4,3.1-4.5,5-7.9,4.8c-3.4,0.1-6.5-1.8-7.9-4.8h-10.3l0.5,1.4l2,5.7c1.3-0.4,2.8-0.4,4.1,0c0.8,0.2,1.5,0.6,2.1,1.2
			c0.4,0.4,0.8,0.8,1.1,1.2c0.3,0.5,0.6,1,0.8,1.5c0.9,2.2,0.4,4.7-1.1,6.5c-0.1,0.2-0.3,0.3-0.4,0.5c2,2,3.7,4.1,3.7,4.1
			s3.7,3.6,7,7.4c-0.4,2,0,15.6,0.1,19.4c-0.5,0.3-1,0.3-1.5,0.1c-0.4-0.2-0.9-0.6-1.5-1l6.6,18.8l0.4,1.1l-5.2,1.7l4.6-0.3
			c0,0.4,0,0.9-0.1,1.3c-0.1,2.1,1.2,6.9,2.9,11.4c0.6,1.6,1.3,3.2,2,4.7c0.8,1.9,1.9,3.6,3.2,5.2c0.9,0.8,2,1.4,3.2,1.8
			c0.6,0.3,1.3,0.5,2,0.8c1.1,0.4,2.3,0.9,3.5,1.3c1.6,0.5,3.1,1,4.4,1.5c2.4,0.8,4.2,1.3,4.2,1.3v-4l0.6-76.7
			C805,127.8,799,120.6,794.2,120.6z M769.5,98.7c0.4,0,0.8-0.5,0.9-1.1c0.1-0.5-0.1-1.1-0.6-1.3c-0.4-0.1-0.8,0.5-0.9,1.1
			C768.8,97.9,769.1,98.5,769.5,98.7z M761.2,96.3c-0.4,0-0.8,0.5-0.9,1.1c-0.1,0.5,0.1,1.1,0.6,1.3c0.4,0.1,0.8-0.5,0.9-1.1
			C762,97,761.8,96.3,761.2,96.3z"/>
		<path id="color_3" class="st4" d="M790,215.3c-0.7-0.3-1.4-0.5-2-0.8c-1.1-0.5-2.2-1.1-3.2-1.8c-1.3-1.6-2.4-3.3-3.2-5.2
			c-0.8-1.5-1.4-3.1-2-4.7c-1.7-4.6-3-9.3-2.9-11.4c0-0.4,0-0.9,0.1-1.3l-4.6,0.3l-10.7,3.4l-7.2,2.3l-9.4,3l-20.2,6.9l-4.3-1.8
			c-4.9,4.7-5.6,10.2-4.2,14.2l0,0v0.1c0.1,0.3,0.3,0.7,0.4,1c-0.4-0.8-0.9-2-0.9-2l7.9,19.9l14.1,35.4l0.3-0.3l0.2,0.8
			c0.1-3,0.9-18.3,0.8-30.8c0-8.6-2.3-14.3-5.3-18c6.4-1.9,12.6-5.5,16.5-4.5c4.4,1.1,9,1.2,13.4,0.2c5,1.2,10.1,2,15.3,2.3
			c-0.3,2.5-0.6,4.8-0.8,6.6c-3.1,3.8-5.3,9.6-5.2,18.4c0,1.4,0.1,2.9,0.2,4.3c0.7,7.4,2.3,14.6,4.7,21.6l0.1-0.7l0.8,0.7l7.1-22.8
			l8.6-27.8l1.2-0.8c0,0,0.8-1.5,1.9-4c-1.3-0.4-2.9-0.9-4.4-1.5C792.5,216.2,791.2,215.7,790,215.3z M717,219.7
			c0,0.1,0.1,0.2,0.1,0.3S717,220,717,219.7L717,219.7z M802.8,202.6v-8.3C803.3,197.1,803.3,199.8,802.8,202.6z M741.1,112.9
			l-39.6,13.9l-1.1-3.1l39.6-13.9L741.1,112.9z M726.5,124.7l16.4-5.7l0.6,1.7l-16.4,5.7L726.5,124.7z M742.5,125.3l2.5-0.9l0.6,1.7
			l-4.1,1.4l-1.2,0.4l-11.1,3.9l-0.6-1.7l13.4-4.7L742.5,125.3z M740.8,132l5.9-2.1l0.6,1.7l-6.1,2.1l-5.4,1.9l-4.8,1.7l-0.6-1.7
			l6.7-2.3L740.8,132z M742.2,137.7l6.5-2.3l0.6,1.7l-6.7,2.3l-5.6,2l-4,1.4l-0.6-1.7l3.8-1.3L742.2,137.7z M735.5,171.6l0.6,1.7
			l-16.4,5.7l-0.6-1.7L735.5,171.6z M721.6,184.5l-0.6-1.7l16.4-5.7l0.6,1.7L721.6,184.5z M723.6,190l-0.6-1.7l16.4-5.7l0.6,1.7
			L723.6,190z M725.5,195.5l-0.6-1.7l16.4-5.7l0.6,1.7L725.5,195.5z M741.2,147.2l-29.1,10.2l-0.2,0.1v-0.1l-0.6-1.6l28.6-10
			l3.8-1.3l7.2-2.5l0.6,1.7l-7.4,2.6L741.2,147.2z M721.8,160.2l-7.7,2.7l-0.6-1.7l5.3-1.8l12.1-4.2h0.1l14.1-4.9l0.3-0.1l7.8-2.7
			l0.4,1.2l0.2,0.5l-0.6,0.2l-6.3,2.2l-1,0.4l-12.9,4.5l-0.6,0.2L721.8,160.2z M715.8,168.4l-0.6-1.7l13.8-4.8l4.9-1.7l2.5-0.9
			l10-3.5l8.4-2.9l0.6,1.7l-8.6,3l-9.2,3.2l-3.3,1.2l-1.4,0.5L715.8,168.4z M747.8,161.5l9-3.1l0.6,1.7l-9.1,3.2L717.8,174l-0.6-1.7
			l1.3-0.4l16-5.6L747.8,161.5z M730.8,144.3l-20,7l-0.2,0.1l-0.4,0.1l-0.1-0.2v-0.1l-6.6-19l20.5-7.2L730.8,144.3z M749,166.7
			l9.2-3.2l6.7,19.2l-11.3,3.9l-9.3,3.2l-6.7-19.2L749,166.7z M480.9,23.3h162v10h-162V23.3L480.9,23.3z M574.9,53h67v5.6h-67
			L574.9,53L574.9,53z M574.9,71h67v5.6h-67L574.9,71L574.9,71z M574.9,89h67v5.6h-67L574.9,89L574.9,89z M574.9,107h67v5.6h-67
			L574.9,107L574.9,107z M480.9,199h67v5.6h-67V199z M480.9,217h67v5.6h-67V217z M480.9,235h67v5.6h-67V235z M508.6,253h39.3v5.6
			h-33.8C512.8,256.3,510.8,254.4,508.6,253z M479.9,128h162v5.6h-162V128L479.9,128z M479.9,146h162v5.6h-162V146L479.9,146z
			 M479.9,164h162v5.6h-162V164L479.9,164z M479.9,182h162v5.6h-162V182L479.9,182z M564.9,114.3h-84v-63h84V114.3z M556.9,198.3h84
			v63h-84L556.9,198.3L556.9,198.3z"/>
		<path id="color_2" class="st5" d="M802.2,215.3h11.6v70h-90v-48l14.1,35.4l-0.4,0.4L725,285l15.7-0.3l-2.2-11l-0.1-0.5
			c0.1-3,0.9-18.3,0.8-30.8c0-8.6-2.3-14.3-5.3-18c6.4-1.9,12.6-5.5,16.5-4.5c4.4,1.1,9,1.2,13.4,0.2c5,1.2,10.1,2,15.3,2.3
			c-0.3,2.5-0.6,4.8-0.8,6.6c-3.1,3.8-5.3,9.6-5.2,18.4c0,1.4,0.1,2.9,0.2,4.3c0.7,7.4,2.3,14.6,4.7,21.6l-2.1,11.6h15.8L779,273.3
			l7.1-22.8l8.6-27.8l1.2-0.8c0,0,0.8-1.5,1.9-4c2.4,0.8,4.2,1.3,4.2,1.3L802.2,215.3z M725,206l-4.3-1.8l-15.1-6.2l-13.1-42.1
			c3.1-1.9,4-6,2.1-9.1c-1.2-1.9-3.3-3.1-5.6-3.1h-0.3l-8.7-27.8l17.8,1.4l48.8-17.1l7.2,20.3l0.5,1.4l2,5.7c-3.4,1-5.3,4.7-4.3,8.1
			c0,0.1,0,0.2,0.1,0.2c0.4,1.2,1.1,2.2,2,3c0.4,0.3,0.8,0.6,1.3,0.8c0.1,1.2,0.4,2.4,0.8,3.6c2.5,9.1,9.9,21.3,14.6,25.3l6.6,18.8
			l0.4,1.1l-5.2,1.7l-10.7,3.4l-7.2,2.3l-9.4,3L725,206z M753.5,148.6l-0.4-1.2l-7.8,2.7l-0.3,0.1l-14.1,4.9h-0.1l-12.1,4.2
			l-5.3,1.8l0.6,1.7l7.7-2.7l10.4-3.6l0.6-0.2l12.9-4.5l1-0.4l6.3-2.2l0.6-0.2V148.6z M765,182.7l-6.7-19.2l-9.2,3.2l-11.3,4
			l6.7,19.2l9.3-3.2L765,182.7z M741.5,188.1l-16.4,5.7l0.6,1.7l16.4-5.7L741.5,188.1z M748.2,163.3l9.1-3.2l-0.6-1.7l-9,3.1
			l-13.4,4.7l-16,5.6l-1.3,0.4l0.6,1.7L748.2,163.3z M735.5,171.6l-16.4,5.7l0.6,1.7l16.4-5.7L735.5,171.6z M754.8,152.9l-8.4,2.9
			l-10,3.5l-2.5,0.9l-4.9,1.7l-13.8,4.8l0.6,1.7l17.2-6l1.4-0.5l3.3-1.2l9.2-3.2l8.6-3L754.8,152.9z M730.6,144.3l-6.7-19.2
			l-20.5,7.2l6.6,19v0.1l0.1,0.2l0.4-0.1l0.2-0.1L730.6,144.3z M741.5,127.6l4.1-1.4l-0.6-1.7l-2.5,0.9l-0.5,0.2l-13.4,4.7l0.6,1.7
			l11.1-3.9L741.5,127.6z M743.5,120.7l-0.6-1.7l-16.4,5.7l0.6,1.7L743.5,120.7z M731,137.4l4.8-1.7l5.4-1.9l6.1-2.1l-0.6-1.7
			l-5.9,2.1l-3.7,1.3l-6.7,2.3L731,137.4z M732.3,141.2l0.6,1.7l4-1.4l5.6-2l6.7-2.3l-0.6-1.7l-6.5,2.3l-6,2.1L732.3,141.2z
			 M741.1,112.9l-1.1-3.1l-39.6,13.9l1.1,3.1L741.1,112.9z M712,157.4l0.2-0.1l29.1-10.2l2.9-1l7.4-2.6l-0.6-1.7l-7.2,2.5l-3.8,1.3
			l-28.6,10l0.6,1.6V157.4z M721.6,184.5l16.4-5.7l-0.6-1.7l-16.4,5.7L721.6,184.5z M723,188.3l0.6,1.7l16.4-5.7l-0.6-1.7L723,188.3
			z M467.9,248.1c-2.3,1.4-4.4,3-6.5,4.7c3.1-6.1,6.4-12.2,9.9-18c0.3-0.5-0.4-1-0.7-0.5c-4.2,7-8.1,14.1-11.6,21.4
			c-0.2-1.4-0.2-2.7,0-4.1c0.1-0.5-0.8-0.6-0.8-0.1c-0.2,1.8-0.1,3.7,0.2,5.5v0.1c-0.3,0.6-0.6,1.3-0.9,1.9c0.3-0.1,0.7-0.1,1-0.2
			c0.8-1.7,1.6-3.5,2.5-5.2c0.2,0.1,0.4,0.2,0.6,0.1c2.3-1.6,4.3-3.5,6.7-4.8C468.6,248.6,468.4,247.8,467.9,248.1z M455.9,0H671
			v285H569.8c-1.9-8.1-8.9-13.9-17.2-14.3h-0.9c-0.9,0-1.9,0.1-2.8,0.2c-3,0.4-5.8,1.6-8.2,3.3c0.2-0.9,0.4-1.9,0.4-2.9
			c-0.1-7-5.8-12.7-12.8-12.6c-5,0-9.4,3-11.5,7.5c-0.2-2.7-1.1-5.2-2.5-7.5h33.8V253h-39.3c-2.9-1.9-6.2-2.8-9.6-2.8
			c-1.6,0-3.2,0.2-4.7,0.6c-1.5-0.4-3.1-0.6-4.7-0.6c-9.1-0.1-16.8,6.8-17.6,15.9c-1-2.2-2.6-4-4.6-5.3c0.2-0.4,0.4-0.9,0.5-1.4
			c2.5-7.2,0.9-13.3,5.6-19.4s6.8-15.1,1.9-17c-4.9-1.9-8.1,5.2-11.1,12.7c-2.8,6.9-3.1,5.5-8.4,12.8L455.9,0z M547.9,235h-67v5.6
			h67V235z M547.9,217h-67v5.6h67V217z M547.9,199h-67v5.6h67V199z M641,198.3h-84v63h84V198.3z M642,107h-67v5.6h67V107z M642,89
			h-67v5.6h67V89z M642,71h-67v5.6h67V71z M642,53h-67v5.6h67V53z M480.9,33.3h162v-10h-162V33.3L480.9,33.3z M480.9,114.3h84v-63
			h-84V114.3z M479.9,133.6h162V128h-162V133.6L479.9,133.6z M479.9,151.6h162V146h-162V151.6L479.9,151.6z M479.9,169.6h162V164
			h-162V169.6L479.9,169.6z M479.9,187.6h162V182h-162V187.6L479.9,187.6z"/>
		<path id="color_1" class="st6" d="M854,254.1c0.5-0.4-0.1-1.2-0.6-0.8c-1.2,1-2.6,1.8-4.1,2.4c5.2-7.9,10-16.1,14.5-24.5
			c0.3-0.6-0.6-0.9-0.9-0.4c-3.8,7.1-7.8,14-12.1,20.8c0.4-3.1,0.7-6.2,0.7-9.3c0-0.6-1-0.5-1,0.1c-0.1,3.2-0.3,6.4-0.8,9.6
			c0,0.2,0.2,0.5,0.4,0.5c-3.4,5.3-7,10.5-10.8,15.5c-0.4,1-0.9,2-1.4,3c0,0.1-0.1,0.2-0.1,0.3c0.7-0.2,1.4-0.3,2.2-0.5
			c0.9-0.1,1.9-0.2,2.8-0.2h0.9c8.4,0.4,15.5,6.3,17.3,14.5h-47.2v-34.8c1.5,1.1,3,2.3,4.5,3.4c0.2,0.1,0.5,0.1,0.6-0.1
			c0.9,1.7,1.7,3.5,2.5,5.2c0.3,0,0.7,0.1,1,0.2c-0.3-0.6-0.6-1.3-0.9-1.9V257c0.3-1.8,0.4-3.7,0.2-5.5c-0.1-0.5-0.9-0.5-0.8,0.1
			c0.2,1.4,0.2,2.7,0,4.1c-2.2-4.6-4.5-9-7-13.5v-10.5c0.6,1.3,1.1,2.6,1.7,4c3,7.5,3.1,5.2,10,15c2.3,3.3,3.3,7.3,2.6,11.3
			c1.7,1.5,3,3.5,3.6,5.7c0.4-6.4,1.8-12.8,2.5-19.2c-0.1,0.1-0.2,0.1-0.3,0.1c0,0-0.8-0.5-2-1.4c0-6.4,0.4-12.8,0.9-19.2
			c0.2,0.1,0.5,0.1,0.6-0.1v-0.1c1.8-2.7,3.2-5.6,5.3-8.1c0.4-0.5-0.3-1.2-0.7-0.7c-2,2.4-3.4,5.2-5.1,7.9c0.7-8,1.8-15.9,3.1-23.8
			c0.1-0.6-0.8-0.9-0.9-0.3c-1.5,9.4-2.7,18.8-3.4,28.2c-0.8-1.4-1.4-2.9-1.8-4.4c-0.1-0.6-1.1-0.4-0.9,0.3c0.6,2.1,1.4,4,2.5,5.9
			l0.1,0.1c-0.3,4.5-0.5,9-0.5,13.5c-3.5-3.1-8.8-9.5-6.5-18.8c3.3-13.6,4.4-11.1,4.5-20.6c0.1-9.5,0.5-18.5,6.6-18.5
			c6.1,0,7.6,10.7,5.2,19.3c-2.4,8.6,1.9,14.6,2.2,23.5c0.4,9.4-4.1,14.1-6.9,16c-0.8,8.6-3,17.2-2.7,25.8c0.7-0.4,1.4-0.8,2.1-1.1
			c0-0.1,0-0.1,0.1-0.1l0,0c0.7-1.2,1.4-2.5,2-3.8c-0.2,0-0.5,0-0.7-0.1c0,0-5.3-8.8,3.3-19.2c5.7-6.8,12.8-8.9,16.1-17.2
			s10.9-15.9,15.8-12.2s-0.3,11.2-6,18.7s-3.3,6.3-9,19c-3.9,8.7-11.9,10.6-16.6,10.9c2.7-3.6,5.3-7.3,7.8-11h0.1
			C850.5,256.4,852.5,255.4,854,254.1z M814,243.9v5.4c1.6,1.1,3.1,2.3,4.6,3.5C817,249.8,815.5,246.8,814,243.9z M569.8,285
			c0,0.1,0,0.2,0.1,0.3H418.8c1.8-8.2,8.9-14.1,17.3-14.5h0.9c0.9,0,1.9,0.1,2.8,0.2c0.7,0.1,1.5,0.3,2.2,0.5c0-0.1-0.1-0.2-0.1-0.3
			c-0.5-1-1-2-1.4-3c-3.8-5-7.4-10.2-10.8-15.5c0.2,0,0.4-0.3,0.4-0.5c-0.2-3.2-0.9-6.4-0.8-9.6c0-0.6-1-0.8-1-0.1
			c-0.1,3.1,0.5,6.2,0.7,9.3c-4.3-6.8-8.3-13.7-12.1-20.8c-0.1-0.2-0.4-0.4-0.6-0.2c-0.2,0.2-0.4,0.4-0.3,0.6l0,0
			c4.5,8.4,9.3,16.6,14.5,24.5c-1.4-0.7-2.8-1.5-4.1-2.4c-0.5-0.4-1.1,0.4-0.6,0.8c1.7,1.3,3.6,2.3,5.6,3.1h0.1
			c2.5,3.7,5.1,7.4,7.8,11c-4.7-0.3-12.7-2.2-16.6-10.9c-5.7-12.8-3.3-11.5-9-19c-5.7-7.5-10.9-15-6-18.7s12.5,3.8,15.8,12.2
			c3.3,8.4,10.4,10.4,16.1,17.2c8.7,10.4,3.3,19.2,3.3,19.2c-0.2,0-0.5,0-0.7,0.1c0.6,1.3,1.2,2.6,2,3.8c0,0.1,0,0.1,0.1,0.1l0,0
			c0.7,0.3,1.4,0.7,2.1,1.1c0.3-8.7-1.9-17.2-2.7-25.8c-2.8-2-7.3-6.6-6.9-16c0.3-8.9,4.7-14.8,2.2-23.5s-1-19.3,5.2-19.3
			c6.2,0,6.6,9,6.6,18.5s1.2,7,4.5,20.6c2.2,9.2-3,15.6-6.5,18.8c0-4.5-0.2-9-0.5-13.5l0.1-0.1c1.1-1.9,1.9-3.8,2.5-5.9
			c0.1-0.6-0.8-0.9-0.9-0.3c-0.3,1.6-1,3-1.8,4.4c-0.7-9.5-1.9-18.9-3.4-28.2c-0.1-0.6-1.1-0.4-0.9,0.3c1.3,7.9,2.4,15.8,3.1,23.8
			c-1.7-2.6-3.1-5.4-5.1-7.9c-0.4-0.5-1.1,0.2-0.7,0.7c2,2.5,3.5,5.4,5.3,8.1c0.2,0.3,0.4,0.3,0.6,0.2c0.5,6.4,0.9,12.8,0.9,19.2
			c-1.2,0.9-2,1.4-2,1.4c-0.1,0-0.2,0-0.3-0.1c0.7,6.4,2,12.8,2.5,19.2c0.7-2.2,1.9-4.2,3.6-5.7c-0.7-4,0.2-8,2.6-11.3
			c0.6-0.8,1.1-1.5,1.6-2.2c5.4-7.3,5.7-5.9,8.4-12.8c3-7.5,6.2-14.6,11.1-12.7c4.9,1.9,2.7,10.9-1.9,17c-4.6,6.1-3,12.2-5.6,19.4
			c-0.2,0.4-0.4,0.9-0.5,1.4c2,1.3,3.6,3.1,4.6,5.3c0.9-9,8.5-15.9,17.6-15.9c1.6,0,3.2,0.2,4.7,0.6c1.5-0.4,3.1-0.6,4.7-0.6
			c6.2,0,11.9,3.2,15.2,8.4c1.4,2.3,2.3,4.8,2.5,7.5c2.9-6.4,10.4-9.3,16.8-6.4c4.6,2,7.5,6.5,7.5,11.5c0,1-0.1,2-0.4,2.9
			c2.4-1.7,5.2-2.9,8.2-3.3c0.9-0.1,1.9-0.2,2.8-0.2h0.9C560.8,271.1,567.9,276.9,569.8,285z M458.3,257.1c-0.3,0.6-0.6,1.3-0.9,1.9
			c0.3-0.1,0.7-0.1,1-0.2c0.8-1.7,1.6-3.5,2.5-5.2c0.2,0.1,0.4,0.2,0.6,0.1c2.3-1.6,4.3-3.5,6.7-4.8c0.5-0.3,0.1-1-0.3-0.8
			c-2.3,1.4-4.4,3-6.5,4.7c3.1-6.1,6.4-12.2,9.9-18c0.3-0.5-0.4-1-0.7-0.5c-4.2,7-8.1,14.1-11.6,21.4c-0.2-1.4-0.2-2.7,0-4.1
			c0.1-0.5-0.8-0.6-0.8-0.1c-0.2,1.8-0.1,3.7,0.2,5.5C458.3,257,458.2,257,458.3,257.1L458.3,257.1L458.3,257.1z"/>
	</g>
</g>
<g id="Layer_2">
</g>
</svg>
