<?xml version="1.0" encoding="utf-8"?>
<!-- Generator: Adobe Illustrator 25.2.3, SVG Export Plug-In . SVG Version: 6.00 Build 0)  -->
<svg version="1.1" id="Layer_1" xmlns="http://www.w3.org/2000/svg" xmlns:xlink="http://www.w3.org/1999/xlink" x="0px" y="0px"
	 viewBox="0 0 953 285.3" style="enable-background:new 0 0 953 285.3;" xml:space="preserve">
<style type="text/css">
	.st0{fill:#D59222;}
	.st1{fill:#FECCB3;}
	.st2{fill:#FA6D70;}
	.st3{fill:#D4D5D5;}
	.st4{fill:#EEEEEE;}
	.st5{fill:#61D190;}
</style>
<path id="color_6" class="st0" d="M445,274.9l0.4-1.4l12.7,11.6h-15.7l2.1-11.6C444.8,274.4,445,274.9,445,274.9z M444.5,273.5
	c0.3,0.9,0.5,1.4,0.5,1.4l0.4-1.4l-0.8-0.7L444.5,273.5z M447.8,101.1c0,1.8-0.4,3.6-1.2,5.2c0.8-1.6,2-1.5,3.1-5.1
	c0.2-0.8,0.4-1.5,0.6-2.3c-0.8-0.6-1.6-1.2-2.5-1.7V101.1z M444.5,96.6c2.3,1.3,2.1,9.7,2.1,9.7c0.8-1.6,1.2-3.4,1.2-5.2v-3.8
	c-2.6-1.7-5.5-3-8.5-3.9c2.1,2.5,2.2,4.3,2.2,5.4c0,0.9,0.1,1.8,0.3,2.7h0.1C442.2,100.5,443.3,95.9,444.5,96.6z M404.8,273.7
	l0.1,0.1l-0.1-0.5V273.7z M404.2,272.7l-0.4,0.4c0.3,0.2,0.5,0.3,0.8,0.5L404.2,272.7z M404.8,273.9l-0.1-0.2
	c-0.3-0.2-0.5-0.3-0.8-0.5l-12.5,11.9l15.7-0.3l-2.2-11l-0.1-0.1V273.9z M404.8,273.7v-0.4l-0.2-0.8l-0.3,0.3L404.8,273.7z
	 M404.8,273.9v-0.2c-0.1,0-0.1,0-0.1-0.1l0,0L404.8,273.9z"/>
<path id="color_5" class="st1" d="M444.5,96.6c-1.2-0.7-2.5,3.9-2.7,4.8l0,0c-0.2-0.9-0.3-1.7-0.3-2.6c0-1.1-0.1-2.8-2.2-5.4
	l-1.1-0.3c-4.6-1.3-9.3-1.6-14-1c-0.1,0.6-0.2,1.3-0.2,1.9v7.1c0,3.6,0.2,6.9,1.6,9.1c0.9,1.5,2.4,2.5,4.1,2.6v7.8h0.4
	c1.4,3.1,4.5,5,7.9,4.8c3.4,0.1,6.5-1.8,7.9-4.8h0.3v-13.5c0.2-0.2,0.3-0.5,0.4-0.8C446.6,106.3,446.8,97.9,444.5,96.6z M427.2,98.7
	c-0.4,0-0.7-0.6-0.6-1.3c0.1-0.7,0.4-1.2,0.9-1.1s0.7,0.6,0.6,1.3S427.8,98.7,427.2,98.7z M435.9,98.7c-0.4,0-0.7-0.6-0.6-1.3
	c0.1-0.7,0.4-1.2,0.9-1.1s0.7,0.6,0.6,1.3C436.7,98.3,436.2,98.7,435.9,98.7L435.9,98.7z M361.8,150.3c0,2.3-1.2,4.4-3.1,5.6
	c-1.1,0.6-2.3,1-3.5,1c-3.6,0-6.6-2.9-6.6-6.6l0,0l0,0c0-3.5,2.8-6.4,6.3-6.6h0.3C358.8,143.7,361.7,146.6,361.8,150.3L361.8,150.3
	L361.8,150.3z M439.8,169.7c-0.5,0.3-1,0.3-1.5,0.1c-0.4-0.2-0.9-0.6-1.5-1c-4.7-4-12.1-16.1-14.6-25.3c-0.3-1.2-0.6-2.4-0.8-3.6
	c-0.5-0.2-0.9-0.5-1.3-0.8c-2.8-2.3-3.2-6.4-0.9-9.2l0,0l0.1-0.1c0.7-1,1.8-1.7,3-2c1.3-0.4,2.8-0.4,4.1,0c0.8,0.2,1.5,0.6,2.1,1.2
	c0.4,0.4,0.8,0.8,1.1,1.2c0.3,0.5,0.6,1,0.8,1.5c0.9,2.2,0.4,4.7-1.1,6.5c-0.1,0.2-0.3,0.3-0.4,0.5c2,2,3.7,4.1,3.7,4.1
	s3.7,3.6,7,7.4C439.4,152.2,439.7,165.9,439.8,169.7L439.8,169.7z"/>
<path id="color_4" class="st2" d="M425.7,110.1c-6.4-3.6-10.7-8.9-11.3-14.1l0,0c-0.2-1.5-0.2-3,0.2-4.5c1.3-4.6,5.7-7.9,11.7-9.2
	c3.2-4.5,14-7,20.8-1.7c3,2.4,4.2,4.8,4.6,6.7c5.3,3.4,8.9,8,9.6,12.6c0.3,1.7,0.3,3.4-0.1,5c-1.5,5.5-7.4,9-15,9.7V107
	c0.2-0.2,0.3-0.5,0.4-0.8c0.8-1.6,2-1.5,3.1-5.1c0.2-0.8,0.4-1.5,0.6-2.3c-0.8-0.6-1.6-1.2-2.5-1.7c-2.6-1.7-5.5-3-8.5-3.9l-1.1-0.3
	c-4.6-1.3-9.3-1.6-14-1c-0.1,0.6-0.2,1.3-0.2,1.9v7.1C424,104.7,424.3,108,425.7,110.1z M460.5,120.6H446c-1.4,3.1-4.5,5-7.9,4.8
	c-3.4,0.1-6.5-1.8-7.9-4.8h-10.3l0.5,1.4l2,5.7c1.3-0.4,2.8-0.4,4.1,0c0.8,0.2,1.5,0.6,2.1,1.2c0.4,0.4,0.8,0.8,1.1,1.2
	c0.3,0.5,0.6,1,0.8,1.5c0.9,2.2,0.4,4.7-1.1,6.5c-0.1,0.2-0.3,0.3-0.4,0.5c2,2,3.7,4.1,3.7,4.1s3.7,3.6,7,7.4
	c-0.4,2,0,15.6,0.1,19.4c-0.5,0.3-1,0.3-1.5,0.1c-0.4-0.2-0.9-0.6-1.5-1l6.6,18.8l0.4,1.1l-5.2,1.7l4.6-0.3c0,0.4,0,0.9-0.1,1.3
	c-0.1,2.1,1.2,6.9,2.9,11.4c0.6,1.6,1.3,3.2,2,4.7c0.8,1.9,1.9,3.6,3.2,5.2c0.9,0.8,2,1.4,3.2,1.8c0.6,0.3,1.3,0.5,2,0.8
	c1.1,0.4,2.3,0.9,3.5,1.3c1.6,0.5,3.1,1,4.4,1.5c2.4,0.8,4.2,1.3,4.2,1.3v-4l0.6-76.7C471.2,127.8,465.2,120.6,460.5,120.6z
	 M435.8,98.7c0.4,0,0.8-0.5,0.9-1.1c0.1-0.5-0.1-1.1-0.6-1.3c-0.4-0.1-0.8,0.5-0.9,1.1C435.1,97.9,435.4,98.5,435.8,98.7z
	 M427.5,96.3c-0.4,0-0.8,0.5-0.9,1.1c-0.1,0.5,0.1,1.1,0.6,1.3c0.4,0.1,0.8-0.5,0.9-1.1C428.2,97,428,96.3,427.5,96.3z"/>
<path id="color_3" class="st3" d="M456.3,215.3c-0.7-0.3-1.4-0.5-2-0.8c-1.1-0.5-2.2-1.1-3.2-1.8c-1.3-1.6-2.4-3.3-3.2-5.2
	c-0.8-1.5-1.4-3.1-2-4.7c-1.7-4.6-3-9.3-2.9-11.4c0-0.4,0-0.9,0.1-1.3l-4.6,0.3l-10.7,3.4l-7.2,2.3l-9.4,3L391,206l-4.3-1.8
	c-4.9,4.7-5.6,10.2-4.2,14.2l0,0v0.1c0.1,0.3,0.3,0.7,0.4,1c-0.4-0.8-0.9-2-0.9-2l7.9,19.9l14.1,35.4l0.3-0.3l0.2,0.8
	c0.1-3,0.9-18.3,0.8-30.8c0-8.6-2.3-14.3-5.3-18c6.4-1.9,12.6-5.5,16.5-4.5c4.4,1.1,9,1.2,13.4,0.2c5,1.2,10.1,2,15.3,2.3
	c-0.3,2.5-0.6,4.8-0.8,6.6c-3.1,3.8-5.3,9.6-5.2,18.4c0,1.4,0.1,2.9,0.2,4.3c0.7,7.4,2.3,14.6,4.7,21.6l0.1-0.7l0.8,0.7l7.1-22.8
	l8.6-27.8l1.2-0.8c0,0,0.8-1.5,1.9-4c-1.3-0.4-2.9-0.9-4.4-1.5C458.7,216.2,457.5,215.7,456.3,215.3z M383.2,219.7
	c0,0.1,0.1,0.2,0.1,0.3S383.3,220,383.2,219.7L383.2,219.7z M469.1,202.6v-8.3C469.6,197.1,469.6,199.8,469.1,202.6z M407.4,112.9
	l-39.6,13.9l-1.1-3.1l39.6-13.9L407.4,112.9z M392.8,124.7l16.4-5.7l0.6,1.7l-16.4,5.7L392.8,124.7z M408.7,125.3l2.5-0.9l0.6,1.7
	l-4.1,1.4l-1.2,0.4l-11.1,3.9l-0.6-1.7l13.4-4.7L408.7,125.3z M407.1,132l5.9-2.1l0.6,1.7l-6.1,2.1l-5.4,1.9l-4.8,1.7l-0.6-1.7
	l6.7-2.3L407.1,132z M408.5,137.7l6.5-2.3l0.6,1.7l-6.7,2.3l-5.6,2l-4,1.4l-0.6-1.7l3.8-1.3L408.5,137.7z M401.8,171.6l0.6,1.7
	L386,179l-0.6-1.7L401.8,171.6z M387.9,184.5l-0.6-1.7l16.4-5.7l0.6,1.7L387.9,184.5z M389.9,190l-0.6-1.7l16.4-5.7l0.6,1.7
	L389.9,190z M391.8,195.5l-0.6-1.7l16.4-5.7l0.6,1.7L391.8,195.5z M407.5,147.2l-29.1,10.2l-0.2,0.1v-0.1l-0.6-1.6l28.6-10l3.8-1.3
	l7.2-2.5l0.6,1.7l-7.4,2.6L407.5,147.2z M388,160.2l-7.7,2.7l-0.6-1.7l5.3-1.8l12.1-4.2h0.1l14.1-4.9l0.3-0.1l7.8-2.7l0.4,1.2
	l0.2,0.5l-0.6,0.2l-6.3,2.2l-1,0.4l-12.9,4.5l-0.6,0.2L388,160.2z M382,168.4l-0.6-1.7l13.8-4.8l4.9-1.7l2.5-0.9l10-3.5l8.4-2.9
	l0.6,1.7l-8.6,3l-9.2,3.2l-3.3,1.2l-1.4,0.5L382,168.4z M414,161.5l9-3.1l0.6,1.7l-9.1,3.2L384,174l-0.6-1.7l1.3-0.4l16-5.6
	L414,161.5z M397,144.3l-20,7l-0.2,0.1l-0.4,0.1l-0.1-0.2v-0.1l-6.6-19l20.5-7.2L397,144.3z M415.2,166.7l9.2-3.2l6.7,19.2
	l-11.3,3.9l-9.3,3.2l-6.7-19.2L415.2,166.7z M147.2,23.3h162v10h-162L147.2,23.3L147.2,23.3z M241.2,53h67v5.6h-67L241.2,53
	L241.2,53z M241.2,71h67v5.6h-67L241.2,71L241.2,71z M241.2,89h67v5.6h-67L241.2,89L241.2,89z M241.2,107h67v5.6h-67L241.2,107
	L241.2,107z M147.2,199h67v5.6h-67V199z M147.2,217h67v5.6h-67V217z M147.2,235h67v5.6h-67V235z M174.9,253h39.3v5.6h-33.8
	C179,256.3,177.1,254.4,174.9,253z M146.2,128h162v5.6h-162L146.2,128L146.2,128z M146.2,146h162v5.6h-162L146.2,146L146.2,146z
	 M146.2,164h162v5.6h-162L146.2,164L146.2,164z M146.2,182h162v5.6h-162L146.2,182L146.2,182z M231.2,114.3h-84v-63h84V114.3z
	 M223.2,198.3h84v63h-84L223.2,198.3L223.2,198.3z"/>
<path id="color_2" class="st4" d="M468.5,215.3h11.6v70h-90v-48l14.1,35.4l-0.4,0.4L391.3,285l15.7-0.3l-2.2-11l-0.1-0.5
	c0.1-3,0.9-18.3,0.8-30.8c0-8.6-2.3-14.3-5.3-18c6.4-1.9,12.6-5.5,16.5-4.5c4.4,1.1,9,1.2,13.4,0.2c5,1.2,10.1,2,15.3,2.3
	c-0.3,2.5-0.6,4.8-0.8,6.6c-3.1,3.8-5.3,9.6-5.2,18.4c0,1.4,0.1,2.9,0.2,4.3c0.7,7.4,2.3,14.6,4.7,21.6l-2.1,11.6H458l-12.7-11.6
	l7.1-22.8l8.6-27.8l1.2-0.8c0,0,0.8-1.5,1.9-4c2.4,0.8,4.2,1.3,4.2,1.3L468.5,215.3z M391.2,206l-4.3-1.8l-15.1-6.2l-13.1-42.1
	c3.1-1.9,4-6,2.1-9.1c-1.2-1.9-3.3-3.1-5.6-3.1h-0.3l-8.7-27.8l17.8,1.4l48.8-17.1l7.2,20.3l0.5,1.4l2,5.7c-3.4,1-5.3,4.7-4.3,8.1
	c0,0.1,0,0.2,0.1,0.2c0.4,1.2,1.1,2.2,2,3c0.4,0.3,0.8,0.6,1.3,0.8c0.1,1.2,0.4,2.4,0.8,3.6c2.5,9.1,9.9,21.3,14.6,25.3l6.6,18.8
	l0.4,1.1l-5.2,1.7l-10.7,3.4l-7.2,2.3l-9.4,3L391.2,206z M419.7,148.6l-0.4-1.2l-7.8,2.7l-0.3,0.1l-14.1,4.9H397l-12.1,4.2l-5.3,1.8
	l0.6,1.7l7.7-2.7l10.4-3.6l0.6-0.2l12.9-4.5l1-0.4l6.3-2.2l0.6-0.2V148.6z M431.2,182.7l-6.7-19.2l-9.2,3.2l-11.3,4l6.7,19.2
	l9.3-3.2L431.2,182.7z M407.7,188.1l-16.4,5.7l0.6,1.7l16.4-5.7L407.7,188.1z M414.5,163.3l9.1-3.2l-0.6-1.7l-9,3.1l-13.4,4.7
	l-16,5.6l-1.3,0.4l0.6,1.7L414.5,163.3z M401.8,171.6l-16.4,5.7l0.6,1.7l16.4-5.7L401.8,171.6z M421.1,152.9l-8.4,2.9l-10,3.5
	l-2.5,0.9l-4.9,1.7l-13.8,4.8l0.6,1.7l17.2-6l1.4-0.5l3.3-1.2l9.2-3.2l8.6-3L421.1,152.9z M396.9,144.3l-6.7-19.2l-20.5,7.2l6.6,19
	v0.1l0.1,0.2l0.4-0.1l0.2-0.1L396.9,144.3z M407.7,127.6l4.1-1.4l-0.6-1.7l-2.5,0.9l-0.5,0.2l-13.4,4.7l0.6,1.7l11.1-3.9
	L407.7,127.6z M409.8,120.7l-0.6-1.7l-16.4,5.7l0.6,1.7L409.8,120.7z M397.3,137.4l4.8-1.7l5.4-1.9l6.1-2.1L413,130l-5.9,2.1
	l-3.7,1.3l-6.7,2.3L397.3,137.4z M398.6,141.2l0.6,1.7l4-1.4l5.6-2l6.7-2.3l-0.6-1.7l-6.5,2.3l-6,2.1L398.6,141.2z M407.4,112.9
	l-1.1-3.1l-39.6,13.9l1.1,3.1L407.4,112.9z M378.2,157.4l0.2-0.1l29.1-10.2l2.9-1l7.4-2.6l-0.6-1.7l-7.2,2.5l-3.8,1.3l-28.6,10
	l0.6,1.6V157.4z M387.9,184.5l16.4-5.7l-0.6-1.7l-16.4,5.7L387.9,184.5z M389.3,188.3l0.6,1.7l16.4-5.7l-0.6-1.7L389.3,188.3z
	 M134.2,248.1c-2.3,1.4-4.4,3-6.5,4.7c3.1-6.1,6.4-12.2,9.9-18c0.3-0.5-0.4-1-0.7-0.5c-4.2,7-8.1,14.1-11.6,21.4
	c-0.2-1.4-0.2-2.7,0-4.1c0.1-0.5-0.8-0.6-0.8-0.1c-0.2,1.8-0.1,3.7,0.2,5.5v0.1c-0.3,0.6-0.6,1.3-0.9,1.9c0.3-0.1,0.7-0.1,1-0.2
	c0.8-1.7,1.6-3.5,2.5-5.2c0.2,0.1,0.4,0.2,0.6,0.1c2.3-1.6,4.3-3.5,6.7-4.8C134.9,248.6,134.7,247.8,134.2,248.1z M122.2,0h215.1
	v285H236.1c-1.9-8.1-8.9-13.9-17.2-14.3H218c-0.9,0-1.9,0.1-2.8,0.2c-3,0.4-5.8,1.6-8.2,3.3c0.2-0.9,0.4-1.9,0.4-2.9
	c-0.1-7-5.8-12.7-12.8-12.6c-5,0-9.4,3-11.5,7.5c-0.2-2.7-1.1-5.2-2.5-7.5h33.8V253h-39.3c-2.9-1.9-6.2-2.8-9.6-2.8
	c-1.6,0-3.2,0.2-4.7,0.6c-1.5-0.4-3.1-0.6-4.7-0.6c-9.1-0.1-16.8,6.8-17.6,15.9c-1-2.2-2.6-4-4.6-5.3c0.2-0.4,0.4-0.9,0.5-1.4
	c2.5-7.2,0.9-13.3,5.6-19.4s6.8-15.1,1.9-17s-8.1,5.2-11.1,12.7c-2.8,6.9-3.1,5.5-8.4,12.8L122.2,0z M214.2,235h-67v5.6h67V235z
	 M214.2,217h-67v5.6h67V217z M214.2,199h-67v5.6h67V199z M307.2,198.3h-84v63h84V198.3z M308.2,107h-67v5.6h67V107z M308.2,89h-67
	v5.6h67V89z M308.2,71h-67v5.6h67V71z M308.2,53h-67v5.6h67V53z M147.2,33.3h162v-10h-162L147.2,33.3L147.2,33.3z M147.2,114.3h84
	v-63h-84V114.3z M146.2,133.6h162V128h-162L146.2,133.6L146.2,133.6z M146.2,151.6h162V146h-162L146.2,151.6L146.2,151.6z
	 M146.2,169.6h162V164h-162L146.2,169.6L146.2,169.6z M146.2,187.6h162V182h-162L146.2,187.6L146.2,187.6z"/>
<path id="color_1" class="st5" d="M520.2,254.1c0.5-0.4-0.1-1.2-0.6-0.8c-1.2,1-2.6,1.8-4.1,2.4c5.2-7.9,10-16.1,14.5-24.5
	c0.3-0.6-0.6-0.9-0.9-0.4c-3.8,7.1-7.8,14-12.1,20.8c0.4-3.1,0.7-6.2,0.7-9.3c0-0.6-1-0.5-1,0.1c-0.1,3.2-0.3,6.4-0.8,9.6
	c0,0.2,0.2,0.5,0.4,0.5c-3.4,5.3-7,10.5-10.8,15.5c-0.4,1-0.9,2-1.4,3c0,0.1-0.1,0.2-0.1,0.3c0.7-0.2,1.4-0.3,2.2-0.5
	c0.9-0.1,1.9-0.2,2.8-0.2h0.9c8.4,0.4,15.5,6.3,17.3,14.5H480v-34.8c1.5,1.1,3,2.3,4.5,3.4c0.2,0.1,0.5,0.1,0.6-0.1
	c0.9,1.7,1.7,3.5,2.5,5.2c0.3,0,0.7,0.1,1,0.2c-0.3-0.6-0.6-1.3-0.9-1.9V257c0.3-1.8,0.4-3.7,0.2-5.5c-0.1-0.5-0.9-0.5-0.8,0.1
	c0.2,1.4,0.2,2.7,0,4.1c-2.2-4.6-4.5-9-7-13.5v-10.5c0.6,1.3,1.1,2.6,1.7,4c3,7.5,3.1,5.2,10,15c2.3,3.3,3.3,7.3,2.6,11.3
	c1.7,1.5,3,3.5,3.6,5.7c0.4-6.4,1.8-12.8,2.5-19.2c-0.1,0.1-0.2,0.1-0.3,0.1c0,0-0.8-0.5-2-1.4c0-6.4,0.4-12.8,0.9-19.2
	c0.2,0.1,0.5,0.1,0.6-0.1v-0.1c1.8-2.7,3.2-5.6,5.3-8.1c0.4-0.5-0.3-1.2-0.7-0.7c-2,2.4-3.4,5.2-5.1,7.9c0.7-8,1.8-15.9,3.1-23.8
	c0.1-0.6-0.8-0.9-0.9-0.3c-1.5,9.4-2.7,18.8-3.4,28.2c-0.8-1.4-1.4-2.9-1.8-4.4c-0.1-0.6-1.1-0.4-0.9,0.3c0.6,2.1,1.4,4,2.5,5.9
	l0.1,0.1c-0.3,4.5-0.5,9-0.5,13.5c-3.5-3.1-8.8-9.5-6.5-18.8c3.3-13.6,4.4-11.1,4.5-20.6s0.5-18.5,6.6-18.5s7.6,10.7,5.2,19.3
	s1.9,14.6,2.2,23.5c0.4,9.4-4.1,14.1-6.9,16c-0.8,8.6-3,17.2-2.7,25.8c0.7-0.4,1.4-0.8,2.1-1.1c0-0.1,0-0.1,0.1-0.1l0,0
	c0.7-1.2,1.4-2.5,2-3.8c-0.2,0-0.5,0-0.7-0.1c0,0-5.3-8.8,3.3-19.2c5.7-6.8,12.8-8.9,16.1-17.2s10.9-15.9,15.8-12.2
	s-0.3,11.2-6,18.7s-3.3,6.3-9,19c-3.9,8.7-11.9,10.6-16.6,10.9c2.7-3.6,5.3-7.3,7.8-11h0.1C516.8,256.4,518.7,255.4,520.2,254.1z
	 M480.2,243.9v5.4c1.6,1.1,3.1,2.3,4.6,3.5C483.2,249.8,481.8,246.8,480.2,243.9z M236.1,285c0,0.1,0,0.2,0.1,0.3H85.1
	c1.8-8.2,8.9-14.1,17.3-14.5h0.9c0.9,0,1.9,0.1,2.8,0.2c0.7,0.1,1.5,0.3,2.2,0.5c0-0.1-0.1-0.2-0.1-0.3c-0.5-1-1-2-1.4-3
	c-3.8-5-7.4-10.2-10.8-15.5c0.2,0,0.4-0.3,0.4-0.5c-0.2-3.2-0.9-6.4-0.8-9.6c0-0.6-1-0.8-1-0.1c-0.1,3.1,0.5,6.2,0.7,9.3
	C91,245,87,238.1,83.2,231c-0.1-0.2-0.4-0.4-0.6-0.2s-0.4,0.4-0.3,0.6l0,0c4.5,8.4,9.3,16.6,14.5,24.5c-1.4-0.7-2.8-1.5-4.1-2.4
	c-0.5-0.4-1.1,0.4-0.6,0.8c1.7,1.3,3.6,2.3,5.6,3.1h0.1c2.5,3.7,5.1,7.4,7.8,11c-4.7-0.3-12.7-2.2-16.6-10.9
	c-5.7-12.8-3.3-11.5-9-19s-10.9-15-6-18.7s12.5,3.8,15.8,12.2s10.4,10.4,16.1,17.2c8.7,10.4,3.3,19.2,3.3,19.2c-0.2,0-0.5,0-0.7,0.1
	c0.6,1.3,1.2,2.6,2,3.8c0,0.1,0,0.1,0.1,0.1l0,0c0.7,0.3,1.4,0.7,2.1,1.1c0.3-8.7-1.9-17.2-2.7-25.8c-2.8-2-7.3-6.6-6.9-16
	c0.3-8.9,4.7-14.8,2.2-23.5s-1-19.3,5.2-19.3s6.6,9,6.6,18.5s1.2,7,4.5,20.6c2.2,9.2-3,15.6-6.5,18.8c0-4.5-0.2-9-0.5-13.5l0.1-0.1
	c1.1-1.9,1.9-3.8,2.5-5.9c0.1-0.6-0.8-0.9-0.9-0.3c-0.3,1.6-1,3-1.8,4.4c-0.7-9.5-1.9-18.9-3.4-28.2c-0.1-0.6-1.1-0.4-0.9,0.3
	c1.3,7.9,2.4,15.8,3.1,23.8c-1.7-2.6-3.1-5.4-5.1-7.9c-0.4-0.5-1.1,0.2-0.7,0.7c2,2.5,3.5,5.4,5.3,8.1c0.2,0.3,0.4,0.3,0.6,0.2
	c0.5,6.4,0.9,12.8,0.9,19.2c-1.2,0.9-2,1.4-2,1.4c-0.1,0-0.2,0-0.3-0.1c0.7,6.4,2,12.8,2.5,19.2c0.7-2.2,1.9-4.2,3.6-5.7
	c-0.7-4,0.2-8,2.6-11.3c0.6-0.8,1.1-1.5,1.6-2.2c5.4-7.3,5.7-5.9,8.4-12.8c3-7.5,6.2-14.6,11.1-12.7s2.7,10.9-1.9,17
	s-3,12.2-5.6,19.4c-0.2,0.4-0.4,0.9-0.5,1.4c2,1.3,3.6,3.1,4.6,5.3c0.9-9,8.5-15.9,17.6-15.9c1.6,0,3.2,0.2,4.7,0.6
	c1.5-0.4,3.1-0.6,4.7-0.6c6.2,0,11.9,3.2,15.2,8.4c1.4,2.3,2.3,4.8,2.5,7.5c2.9-6.4,10.4-9.3,16.8-6.4c4.6,2,7.5,6.5,7.5,11.5
	c0,1-0.1,2-0.4,2.9c2.4-1.7,5.2-2.9,8.2-3.3c0.9-0.1,1.9-0.2,2.8-0.2h0.9C227.1,271.1,234.2,276.9,236.1,285z M124.6,257.1
	c-0.3,0.6-0.6,1.3-0.9,1.9c0.3-0.1,0.7-0.1,1-0.2c0.8-1.7,1.6-3.5,2.5-5.2c0.2,0.1,0.4,0.2,0.6,0.1c2.3-1.6,4.3-3.5,6.7-4.8
	c0.5-0.3,0.1-1-0.3-0.8c-2.3,1.4-4.4,3-6.5,4.7c3.1-6.1,6.4-12.2,9.9-18c0.3-0.5-0.4-1-0.7-0.5c-4.2,7-8.1,14.1-11.6,21.4
	c-0.2-1.4-0.2-2.7,0-4.1c0.1-0.5-0.8-0.6-0.8-0.1c-0.2,1.8-0.1,3.7,0.2,5.5C124.6,257,124.5,257,124.6,257.1L124.6,257.1
	L124.6,257.1z"/>
</svg>
