<?xml version="1.0" encoding="utf-8"?>
<!-- Generator: Adobe Illustrator 25.2.3, SVG Export Plug-In . SVG Version: 6.00 Build 0)  -->
<svg version="1.1" id="Layer_1" xmlns="http://www.w3.org/2000/svg" xmlns:xlink="http://www.w3.org/1999/xlink" x="0px" y="0px"
	 viewBox="0 0 595.3 595.3" style="enable-background:new 0 0 595.3 595.3;" xml:space="preserve">
<style type="text/css">
	.st0{fill:#D59222;}
	.st1{fill:#FECCB3;}
	.st2{fill:#FA6D70;}
	.st3{fill:#D4D5D5;}
	.st4{fill:#EEEEEE;}
	.st5{fill:#61D190;}
</style>
<path id="color_x5F_6" class="st0" d="M437.3,429.9l0.4-1.4l12.7,11.6h-15.7l2.1-11.6C437.1,429.4,437.3,429.9,437.3,429.9z
	 M436.8,428.5c0.3,0.9,0.5,1.4,0.5,1.4l0.4-1.4l-0.8-0.7L436.8,428.5z M440.2,256.1c0,1.9-0.4,3.7-1.2,5.2c0.8-1.6,2-1.5,3.1-5.1
	c0.2-0.8,0.4-1.5,0.6-2.3c-0.8-0.6-1.6-1.2-2.5-1.7L440.2,256.1L440.2,256.1z M436.9,251.6c2.3,1.3,2.1,9.7,2.1,9.7
	c0.8-1.6,1.2-3.4,1.2-5.2v-3.8c-2.5-1.6-5.4-2.9-8.5-3.9c2.1,2.5,2.2,4.3,2.2,5.4c0,1,0.2,2.2,0.3,2.7h0.1
	C434.5,255.5,435.7,250.9,436.9,251.6z M434.2,256.3L434.2,256.3c0,0.1,0,0.1,0,0.1S434.2,256.4,434.2,256.3z M397.1,428.7
	c0,0,0.1,0.1,0.1,0.1l-0.1-0.5C397.1,428.5,397.1,428.6,397.1,428.7z M396.6,427.7l-0.4,0.4c0.3,0.2,0.5,0.3,0.8,0.5L396.6,427.7z
	 M397.1,428.9l-0.1-0.2c-0.3-0.2-0.5-0.3-0.8-0.5l-12.5,11.9l15.7-0.3l-2.2-11c0,0-0.1-0.1-0.1-0.1
	C397.1,428.8,397.1,428.9,397.1,428.9z M397.1,428.7c0-0.1,0-0.2,0-0.4l-0.2-0.8l-0.3,0.3L397.1,428.7
	C397,428.6,397.1,428.7,397.1,428.7z M397.1,428.9c0,0,0-0.1,0-0.2c0,0-0.1,0-0.1-0.1L397.1,428.9z"/>
<path id="color_x5F_5" class="st1" d="M436.9,251.6c-1.2-0.7-2.5,3.9-2.7,4.8c0,0.1,0,0.1,0,0.1s0-0.1,0-0.1
	c-0.1-0.4-0.3-1.7-0.3-2.6c0-1.1-0.1-2.8-2.2-5.4c-0.4-0.1-0.7-0.2-1.1-0.3c-4.9-1.4-9.8-1.6-14-1c-0.1,0.6-0.2,1.3-0.2,1.9v7.1
	c0,3.6,0.2,6.9,1.6,9.1c0.8,1.4,2.1,2.3,4.1,2.6v7.8h0.4c1.3,2.8,3.9,4.8,7.9,4.8s6.6-2.1,7.9-4.8h0.3v-5.9v-7.6
	c0.2-0.3,0.3-0.5,0.4-0.8C439,261.3,439.2,252.9,436.9,251.6z M419.6,253.7c-0.4,0-0.7-0.6-0.6-1.3c0.1-0.7,0.4-1.2,0.9-1.1
	c0.4,0,0.7,0.6,0.6,1.3C420.4,253.2,420.1,253.7,419.6,253.7z M428.2,253.7c-0.4,0-0.7-0.6-0.6-1.3c0.1-0.7,0.4-1.2,0.9-1.1
	c0.4,0,0.7,0.6,0.6,1.3C429,253.2,428.6,253.7,428.2,253.7z M354.1,305.3c0,2.3-1.2,4.4-3.1,5.6c-1,0.6-2.2,1-3.5,1
	c-3.6,0-6.6-2.9-6.6-6.6c0-3.5,2.8-6.4,6.3-6.6c0.1,0,0.2,0,0.3,0C351.1,298.7,354.1,301.7,354.1,305.3z M432.1,324.7
	c-0.6,0.3-1.1,0.3-1.5,0.1c-0.4-0.2-0.9-0.6-1.5-1c-4.7-4-12.1-16.1-14.6-25.3c-0.4-1.3-0.6-2.5-0.8-3.6c-0.4-0.2-0.9-0.5-1.3-0.8
	c-2.8-2.3-3.2-6.5-0.8-9.3c0.8-1,1.9-1.7,3-2c1.3-0.4,2.8-0.4,4.1,0c0.8,0.3,1.5,0.6,2.1,1.2c0.4,0.4,0.8,0.8,1.1,1.2
	c0.3,0.5,0.6,1,0.8,1.5c0.8,2.1,0.5,4.7-1.1,6.5c-0.1,0.2-0.3,0.3-0.4,0.5c2,2,3.7,4.1,3.7,4.1s3.7,3.6,7,7.4
	C431.7,307.2,432,320.9,432.1,324.7z"/>
<path id="color_x5F_4" class="st2" d="M418,265.1c-6.4-3.6-10.7-8.9-11.3-14.1c0,0,0,0,0,0c-0.2-1.5-0.2-3,0.2-4.5
	c1.3-4.6,5.7-7.9,11.7-9.2c3.2-4.5,14-7,20.8-1.7c3,2.4,4.2,4.8,4.6,6.7c5.3,3.4,8.9,8,9.6,12.6c0.3,1.7,0.3,3.4-0.1,5
	c-1.5,5.5-7.4,9-15,9.7v-7.6c0.2-0.3,0.3-0.5,0.4-0.8c0.8-1.6,2-1.5,3.1-5.1c0.2-0.8,0.4-1.5,0.6-2.3c-0.8-0.6-1.6-1.2-2.5-1.7
	c-2.5-1.6-5.4-2.9-8.5-3.9c-0.4-0.1-0.7-0.2-1.1-0.3c-4.9-1.4-9.8-1.6-14-1c-0.1,0.6-0.2,1.3-0.2,1.9v7.1
	C416.4,259.7,416.7,263,418,265.1z M452.8,275.6h-14.2h-0.3c-1.3,2.8-3.9,4.8-7.9,4.8s-6.6-2.1-7.9-4.8h-0.4h-9.9l0.5,1.4l2,5.7
	c1.3-0.4,2.8-0.4,4.1,0c0.8,0.3,1.5,0.6,2.1,1.2c0.4,0.4,0.8,0.8,1.1,1.2c0.3,0.5,0.6,1,0.8,1.5c0.8,2.1,0.5,4.7-1.1,6.5
	c-0.1,0.2-0.3,0.3-0.4,0.5c2,2,3.7,4.1,3.7,4.1s3.7,3.6,7,7.4c-0.4,2,0,15.6,0.1,19.4c-0.6,0.3-1.1,0.3-1.5,0.1
	c-0.4-0.2-0.9-0.6-1.5-1l6.6,18.8l0.4,1.1l-5.2,1.7l4.6-0.3c0,0,0,0.5-0.1,1.3c-0.1,2.1,1.2,6.9,2.9,11.4c0.6,1.6,1.3,3.2,2,4.7
	c1.1,2.3,2.2,4.3,3.2,5.2c0.6,0.6,1.7,1.2,3.2,1.8c0.6,0.3,1.3,0.5,2,0.8c1.1,0.4,2.3,0.9,3.5,1.3c1.6,0.5,3.1,1,4.4,1.5
	c2.4,0.8,4.2,1.3,4.2,1.3l0-4l0.6-76.7C463.5,282.8,457.6,275.6,452.8,275.6z M428.2,253.7c0.4,0,0.8-0.5,0.9-1.1
	c0.1-0.7-0.2-1.2-0.6-1.3c-0.4,0-0.8,0.5-0.9,1.1C427.5,253.1,427.8,253.6,428.2,253.7z M419.9,251.3c-0.4,0-0.8,0.5-0.9,1.1
	c-0.1,0.7,0.2,1.2,0.6,1.3c0.4,0,0.8-0.5,0.9-1.1C420.6,251.9,420.3,251.3,419.9,251.3z"/>
<path id="color_x5F_3" class="st3" d="M448.7,370.3c-0.7-0.3-1.4-0.5-2-0.8c-1.5-0.7-2.6-1.3-3.2-1.8c-1-1-2.1-2.9-3.2-5.2
	c-0.7-1.4-1.4-3-2-4.7c-1.7-4.6-3-9.3-2.9-11.4c0-0.9,0.1-1.3,0.1-1.3l-4.6,0.3l-10.7,3.4l-7.2,2.3l-9.4,3l-20.2,6.9l-4.3-1.8
	c-4.9,4.7-5.6,10.2-4.2,14.2c0,0,0,0,0,0c0,0,0,0.1,0,0.1c0.1,0.3,0.3,0.7,0.4,1c-0.4-0.8-0.9-2-0.9-2l7.9,19.9l14.1,35.4l0.3-0.3
	l0.2,0.8c0.1-3,0.9-18.3,0.8-30.8c0-8.6-2.3-14.3-5.3-18c6.4-1.9,12.6-5.5,16.5-4.5c4.7,1.2,9.2,1.1,13.4,0.2
	c5.4,1.2,10.7,2.1,15.3,2.3c-0.3,2.5-0.6,4.8-0.8,6.6c-3.1,3.8-5.3,9.6-5.2,18.4c0,1.4,0.1,2.9,0.2,4.3c0.8,9.6,3.6,18.3,4.7,21.6
	l0.1-0.7l0.8,0.7l7.1-22.8l8.6-27.8l1.2-0.8c0,0,0.8-1.5,1.9-4c-1.3-0.4-2.9-0.9-4.4-1.5C451,371.2,449.8,370.7,448.7,370.3z
	 M375.6,374.7c0,0.1,0.1,0.2,0.1,0.3C375.8,375.2,375.7,375,375.6,374.7z M461.5,357.6v-8.3C461.8,351.7,461.9,354.6,461.5,357.6z
	 M399.8,267.9l-39.6,13.9l-1.1-3.1l39.6-13.9L399.8,267.9z M385.2,279.7l16.4-5.7l0.6,1.7l-16.4,5.7L385.2,279.7z M401.1,280.3
	l2.5-0.9l0.6,1.7l-4.1,1.4l-1.2,0.4l-11.1,3.9l-0.6-1.7l13.4-4.7L401.1,280.3z M399.5,287l5.9-2.1l0.6,1.7l-6.1,2.1l-5.4,1.9
	l-4.8,1.7l-0.6-1.7l6.7-2.3L399.5,287z M400.9,292.7l6.5-2.3l0.6,1.7l-6.7,2.3l-5.6,2l-4,1.4l-0.6-1.7l3.8-1.3L400.9,292.7z
	 M394.2,326.6l0.6,1.7l-16.4,5.7l-0.6-1.7L394.2,326.6z M380.3,339.5l-0.6-1.7l16.4-5.7l0.6,1.7L380.3,339.5z M382.3,345l-0.6-1.7
	l16.4-5.7l0.6,1.7L382.3,345z M384.2,350.5l-0.6-1.7l16.4-5.7l0.6,1.7L384.2,350.5z M399.9,302.2l-29.1,10.2l-0.2,0.1l0-0.1
	l-0.6-1.6l28.6-10l3.8-1.3l7.2-2.5l0.6,1.7l-7.4,2.6L399.9,302.2z M380.3,315.2l-7.7,2.7l-0.6-1.7l5.3-1.8l12.1-4.2l0.1,0l14.1-4.9
	l0.3-0.1l7.8-2.7l0.4,1.2l0.2,0.5l-0.6,0.2l-6.3,2.2l-1,0.4l-12.9,4.5l-0.6,0.2L380.3,315.2z M374.4,323.4l-0.6-1.7l13.8-4.8
	l4.9-1.7l2.5-0.9l10-3.5l8.4-2.9l0.6,1.7l-8.6,3l-9.2,3.2l-3.3,1.2l-1.4,0.5L374.4,323.4z M406.4,316.5l9-3.1l0.6,1.7l-9.1,3.2
	l-30.5,10.7l-0.6-1.7l1.3-0.4l16-5.6L406.4,316.5z M389.3,299.3l-20,7l-0.2,0.1l-0.4,0.1l-0.1-0.2l0-0.1l-6.6-19l20.5-7.2
	L389.3,299.3z M407.6,321.7l9.2-3.2l6.7,19.2l-11.3,3.9l-9.3,3.2l-6.7-19.2L407.6,321.7z M139.5,178.3h162v10h-162V178.3z
	 M233.5,208h67v5.6h-67V208z M233.5,226h67v5.6h-67V226z M233.5,244h67v5.6h-67V244z M233.5,262h67v5.6h-67V262z M139.5,354h67v5.6
	h-67V354z M139.5,372h67v5.6h-67V372z M139.5,390h67v5.6h-67V390z M167.2,408h39.3v5.6h-33.8C171.3,411.4,169.4,409.4,167.2,408z
	 M138.5,283h162v5.6h-162V283z M138.5,301h162v5.6h-162V301z M138.5,319h162v5.6h-162V319z M138.5,337h162v5.6h-162V337z
	 M223.5,269.3h-84v-63h84V269.3z M215.5,353.3h84v63h-84V353.3z"/>
<path id="color_x5F_2" class="st4" d="M460.9,370.3h11.6v16.4v10.5v1.7v5.4v1v9.7v3.5v21.7v0.1h-90v-0.1v-14v-33.9l14.1,35.4
	l-0.4,0.4l-12.5,11.9l15.7-0.3l-2.2-11l-0.1-0.5c0.1-3,0.9-18.3,0.8-30.8c0-8.6-2.3-14.3-5.3-18c6.4-1.9,12.6-5.5,16.5-4.5
	c4.7,1.2,9.2,1.1,13.4,0.2c5.4,1.2,10.7,2.1,15.3,2.3c-0.3,2.5-0.6,4.8-0.8,6.6c-3.1,3.8-5.3,9.6-5.2,18.4c0,1.4,0.1,2.9,0.2,4.3
	c0.8,9.6,3.6,18.3,4.7,21.6l-2.1,11.6h15.7l-12.7-11.6l7.1-22.8l8.6-27.8l1.2-0.8c0,0,0.8-1.5,1.9-4c2.4,0.8,4.2,1.3,4.2,1.3
	L460.9,370.3z M383.5,361l-4.3-1.8l-15.1-6.2L351,310.9c1.9-1.2,3.1-3.2,3.1-5.6c0-3.6-2.9-6.6-6.6-6.6c-0.1,0-0.2,0-0.3,0
	l-8.7-27.8l17.8,1.4l48.8-17.1l7.2,20.3l0.5,1.4l2,5.7c-1.1,0.4-2.2,1-3,2c-2.3,2.8-2,6.9,0.8,9.3c0.4,0.3,0.8,0.6,1.3,0.8
	c0.1,1.1,0.4,2.3,0.8,3.6c2.5,9.1,9.9,21.3,14.6,25.3l6.6,18.8l0.4,1.1l-5.2,1.7l-10.7,3.4l-7.2,2.3l-9.4,3L383.5,361z M412,303.6
	l-0.4-1.2l-7.8,2.7l-0.3,0.1l-14.1,4.9l-0.1,0l-12.1,4.2l-5.3,1.8l0.6,1.7l7.7-2.7l10.4-3.6l0.6-0.2l12.9-4.5l1-0.4l6.3-2.2l0.6-0.2
	L412,303.6z M423.6,337.7l-6.7-19.2l-9.2,3.2l-11.3,4l6.7,19.2l9.3-3.2L423.6,337.7z M400,343.1l-16.4,5.7l0.6,1.7l16.4-5.7
	L400,343.1z M406.8,318.3l9.1-3.2l-0.6-1.7l-9,3.1l-13.4,4.7l-16,5.6l-1.3,0.4l0.6,1.7L406.8,318.3z M394.2,326.6l-16.4,5.7l0.6,1.7
	l16.4-5.7L394.2,326.6z M413.5,307.9l-8.4,2.9l-10,3.5l-2.5,0.9l-4.9,1.7l-13.8,4.8l0.6,1.7l17.2-6l1.4-0.5l3.3-1.2l9.2-3.2l8.6-3
	L413.5,307.9z M389.3,299.3l-6.7-19.2l-20.5,7.2l6.6,19l0,0.1l0.1,0.2l0.4-0.1l0.2-0.1L389.3,299.3z M400.1,282.6l4.1-1.4l-0.6-1.7
	l-2.5,0.9l-0.5,0.2l-13.4,4.7l0.6,1.7l11.1-3.9L400.1,282.6z M402.2,275.7l-0.6-1.7l-16.4,5.7l0.6,1.7L402.2,275.7z M389.7,292.4
	l4.8-1.7l5.4-1.9l6.1-2.1l-0.6-1.7l-5.9,2.1l-3.7,1.3l-6.7,2.3L389.7,292.4z M391,296.2l0.6,1.7l4-1.4l5.6-2l6.7-2.3l-0.6-1.7
	l-6.5,2.3l-6,2.1L391,296.2z M399.8,267.9l-1.1-3.1l-39.6,13.9l1.1,3.1L399.8,267.9z M370.6,312.4l0.2-0.1l29.1-10.2l2.9-1l7.4-2.6
	l-0.6-1.7l-7.2,2.5l-3.8,1.3l-28.6,10l0.6,1.6L370.6,312.4z M380.3,339.5l16.4-5.7l-0.6-1.7l-16.4,5.7L380.3,339.5z M381.7,343.3
	l0.6,1.7l16.4-5.7l-0.6-1.7L381.7,343.3z M126.5,403.1c-2.3,1.3-4.4,3.1-6.5,4.7c3.1-6.1,6.4-12.2,9.9-18c0.3-0.5-0.4-1-0.7-0.5
	c-4.2,7-8.1,14.1-11.6,21.4c-0.1-1.3-0.2-2.7,0-4.1c0.1-0.5-0.8-0.6-0.8-0.1c-0.3,1.8,0,3.6,0.2,5.5c0,0,0,0.1,0,0.1
	c-0.3,0.6-0.6,1.3-0.9,1.9c0.3-0.1,0.7-0.1,1-0.2c0.8-1.7,1.6-3.5,2.5-5.2c0.1,0.1,0.4,0.2,0.6,0.1c2.3-1.6,4.3-3.5,6.7-4.8
	C127.3,403.6,127,402.8,126.5,403.1z M114.5,155h215.1v285H228.4c-1.8-7.9-8.8-13.9-17.2-14.3c-0.3,0-0.6,0-0.9,0
	c-0.9,0-1.9,0.1-2.8,0.2c-3,0.4-5.8,1.6-8.2,3.3c0.2-0.9,0.4-1.9,0.4-2.9c0-6.9-5.7-12.6-12.7-12.6c-5.2,0-9.7,3.1-11.6,7.5
	c-0.2-2.7-1.1-5.3-2.5-7.5h33.8V408h-39.3c-2.8-1.8-6-2.8-9.6-2.8c-1.6,0-3.2,0.2-4.7,0.6c-1.5-0.4-3.1-0.6-4.7-0.6
	c-9.3,0-16.8,7-17.6,15.9c-1-2.2-2.6-4-4.6-5.3c0.2-0.4,0.4-0.9,0.5-1.4c2.5-7.2,0.9-13.3,5.6-19.4c4.7-6.1,6.8-15.1,1.9-17
	c-4.9-1.9-8.1,5.2-11.1,12.7c-2.8,6.9-3.1,5.5-8.4,12.8L114.5,155L114.5,155z M206.5,390h-67v5.6h67V390z M206.5,372h-67v5.6h67V372
	z M206.5,354h-67v5.6h67V354z M299.5,353.3h-84v63h84V353.3z M300.5,262h-67v5.6h67V262z M300.5,244h-67v5.6h67V244z M300.5,226h-67
	v5.6h67V226z M300.5,208h-67v5.6h67V208z M139.5,188.3h162v-10h-162V188.3z M139.5,269.3h84v-63h-84V269.3z M138.5,288.6h162V283
	h-162V288.6z M138.5,306.6h162V301h-162V306.6z M138.5,324.6h162V319h-162V324.6z M138.5,342.6h162V337h-162V342.6z"/>
<path id="color_x5F_1" class="st5" d="M512.6,409.1c0.5-0.4-0.1-1.2-0.6-0.8c-1.2,1-2.6,1.7-4.1,2.4c5.2-7.9,10-16.1,14.5-24.5
	c0.3-0.6-0.6-0.9-0.9-0.4c-3.8,7.1-7.8,14-12.1,20.8c0.3-3.1,0.8-6.2,0.7-9.3c0-0.6-1-0.5-1,0.1c0.1,3.2-0.5,6.4-0.8,9.6
	c0,0.3,0.2,0.5,0.4,0.5c-3.4,5.3-7,10.5-10.8,15.5c-0.4,1.1-0.9,2.1-1.4,3c0,0.1-0.1,0.2-0.1,0.3c0.7-0.2,1.4-0.3,2.2-0.5
	c0.9-0.1,1.8-0.2,2.8-0.2c0.3,0,0.6,0,0.9,0c8.5,0.4,15.6,6.5,17.3,14.5h-47.2v-21.7V415v-9.7c1.5,1.1,3,2.3,4.5,3.4
	c0.2,0.1,0.4,0.1,0.6-0.1c0.9,1.7,1.7,3.5,2.5,5.2c0.3,0,0.7,0.1,1,0.2c-0.3-0.6-0.6-1.3-0.9-1.9c0,0,0-0.1,0-0.1
	c0.2-1.8,0.5-3.6,0.2-5.5c-0.1-0.5-0.9-0.5-0.8,0.1c0.2,1.4,0.1,2.7,0,4.1c-2.2-4.6-4.5-9-7-13.5v-10.5c0.6,1.3,1.1,2.6,1.7,4
	c3,7.5,3.1,5.2,10,15c2.8,4,3.1,8,2.6,11.3c1.7,1.5,3,3.5,3.6,5.7c0.4-6.4,1.8-12.8,2.5-19.2c-0.2,0.1-0.3,0.1-0.3,0.1
	s-0.8-0.5-2-1.4c0-6.4,0.4-12.8,0.9-19.2c0.2,0.1,0.5,0.1,0.6-0.2c1.8-2.7,3.2-5.6,5.3-8.1c0.4-0.5-0.3-1.2-0.7-0.7
	c-2,2.4-3.4,5.2-5.1,7.9c0.7-8,1.8-15.9,3.1-23.8c0.1-0.6-0.8-0.9-0.9-0.3c-1.5,9.4-2.7,18.8-3.4,28.2c-0.7-1.4-1.4-2.8-1.8-4.4
	c-0.1-0.6-1.1-0.4-0.9,0.3c0.5,2.1,1.5,4,2.5,5.9c0,0,0.1,0.1,0.1,0.1c-0.3,4.5-0.5,9-0.5,13.5c-3.5-3.1-8.8-9.5-6.5-18.8
	c3.3-13.6,4.4-11.1,4.5-20.6c0.1-9.5,0.5-18.5,6.6-18.5c6.2,0,7.6,10.7,5.2,19.3c-2.5,8.6,1.9,14.6,2.2,23.5
	c0.4,9.4-4.1,14.1-6.9,16c-0.8,8.6-3,17.2-2.7,25.8c0.7-0.4,1.4-0.8,2.1-1.1c0,0,0-0.1,0.1-0.1c0.6-1.1,1.5-2.5,2-3.8
	c-0.4,0-0.7-0.1-0.7-0.1s-5.3-8.8,3.3-19.2c5.7-6.8,12.8-8.9,16.1-17.2s10.9-15.9,15.8-12.2c4.9,3.8-0.3,11.2-6,18.7
	c-5.7,7.5-3.3,6.3-9,19c-3.9,8.7-11.9,10.6-16.6,10.9c2.7-3.6,5.3-7.3,7.8-11c0,0,0.1,0,0.1,0C509,411.3,511,410.5,512.6,409.1z
	 M472.5,398.9v5.4c1.6,1.1,3.1,2.3,4.6,3.5C475.6,404.8,474.1,401.8,472.5,398.9z M228.4,440c0,0.1,0,0.2,0.1,0.3H77.4
	c1.7-8,8.8-14.1,17.3-14.5c0.3,0,0.6,0,0.9,0c0.9,0,1.9,0.1,2.8,0.2c0.7,0.1,1.5,0.3,2.2,0.5c0-0.1-0.1-0.2-0.1-0.3
	c-0.5-0.9-1-2-1.4-3c-3.8-5-7.4-10.2-10.8-15.5c0.2,0,0.4-0.2,0.4-0.5c-0.2-3.2-0.9-6.4-0.8-9.6c0-0.6-1-0.8-1-0.1
	c-0.1,3.1,0.5,6.2,0.7,9.3c-4.3-6.8-8.3-13.7-12.1-20.8c-0.3-0.6-1.2-0.2-0.9,0.4c4.5,8.4,9.3,16.6,14.5,24.5
	c-1.4-0.7-2.8-1.4-4.1-2.4c-0.5-0.4-1.1,0.4-0.6,0.8c1.7,1.4,3.6,2.2,5.6,3.1c0,0,0.1,0,0.1,0c2.5,3.7,5.1,7.4,7.8,11
	c-4.7-0.3-12.7-2.2-16.6-10.9c-5.7-12.8-3.3-11.5-9-19c-5.7-7.5-10.9-15-6-18.7c4.9-3.8,12.5,3.8,15.8,12.2
	c3.3,8.3,10.4,10.4,16.1,17.2c8.7,10.4,3.3,19.2,3.3,19.2s-0.3,0-0.7,0.1c0.5,1.4,1.4,2.7,2,3.8c0,0,0,0.1,0.1,0.1
	c0.7,0.3,1.4,0.7,2.1,1.1c0.3-8.7-1.9-17.2-2.7-25.8c-2.8-2-7.3-6.6-6.9-16c0.3-8.9,4.7-14.8,2.2-23.5c-2.5-8.6-1-19.3,5.2-19.3
	c6.2,0,6.6,9,6.6,18.5c0.1,9.5,1.2,7,4.5,20.6c2.2,9.2-3,15.6-6.5,18.8c0-4.5-0.2-9-0.5-13.5c0,0,0.1-0.1,0.1-0.1
	c1-1.9,2-3.8,2.5-5.9c0.1-0.6-0.8-0.9-0.9-0.3c-0.3,1.6-1,3-1.8,4.4c-0.7-9.5-1.9-18.9-3.4-28.2c-0.1-0.6-1.1-0.4-0.9,0.3
	c1.3,7.9,2.4,15.8,3.1,23.8c-1.7-2.6-3.1-5.4-5.1-7.9c-0.4-0.5-1.1,0.2-0.7,0.7c2,2.5,3.5,5.4,5.3,8.1c0.2,0.3,0.4,0.3,0.6,0.2
	c0.5,6.4,0.9,12.8,0.9,19.2c-1.2,0.9-2,1.4-2,1.4s-0.1,0-0.3-0.1c0.7,6.4,2,12.8,2.5,19.2c0.7-2.2,1.9-4.2,3.6-5.7
	c-0.6-3.3-0.2-7.3,2.6-11.3c0.6-0.8,1.1-1.5,1.6-2.2c5.4-7.3,5.7-5.9,8.4-12.8c3-7.5,6.2-14.6,11.1-12.7c4.9,1.9,2.7,10.9-1.9,17
	c-4.7,6.1-3,12.2-5.6,19.4c-0.2,0.5-0.4,1-0.5,1.4c2,1.3,3.6,3.2,4.6,5.3c0.8-8.9,8.4-15.9,17.6-15.9c1.6,0,3.2,0.2,4.7,0.6
	c1.5-0.4,3.1-0.6,4.7-0.6c3.5,0,6.8,1,9.6,2.8c2.3,1.4,4.2,3.4,5.6,5.6c1.4,2.2,2.3,4.8,2.5,7.5c2-4.4,6.4-7.5,11.6-7.5
	c7,0,12.7,5.6,12.7,12.6c0,1-0.1,2-0.4,2.9c2.4-1.7,5.2-2.9,8.2-3.3c0.9-0.1,1.8-0.2,2.8-0.2c0.3,0,0.6,0,0.9,0
	C219.6,426.1,226.5,432.1,228.4,440z M116.9,412.1c-0.3,0.6-0.6,1.3-0.9,1.9c0.3-0.1,0.7-0.1,1-0.2c0.8-1.7,1.6-3.5,2.5-5.2
	c0.1,0.1,0.4,0.2,0.6,0.1c2.3-1.6,4.3-3.5,6.7-4.8c0.5-0.3,0.1-1-0.3-0.8c-2.3,1.3-4.4,3.1-6.5,4.7c3.1-6.1,6.4-12.2,9.9-18
	c0.3-0.5-0.4-1-0.7-0.5c-4.2,7-8.1,14.1-11.6,21.4c-0.1-1.3-0.2-2.7,0-4.1c0.1-0.5-0.8-0.6-0.8-0.1c-0.3,1.8,0,3.6,0.2,5.5
	C116.9,412,116.9,412.1,116.9,412.1z"/>
</svg>
