<?xml version="1.0" encoding="utf-8"?>
<!-- Generator: Adobe Illustrator 25.2.3, SVG Export Plug-In . SVG Version: 6.00 Build 0)  -->
<svg version="1.1" id="Layer_1" xmlns="http://www.w3.org/2000/svg" xmlns:xlink="http://www.w3.org/1999/xlink" x="0px" y="0px"
	 viewBox="0 0 370.6 488.6" style="enable-background:new 0 0 370.6 488.6;" xml:space="preserve">
<style type="text/css">
	.st0{fill:#D4D5D5;}
	.st1{fill:#78909C;}
	.st2{fill:#FECCB3;}
	.st3{fill:#008DC9;}
	.st4{fill:#8B624B;}
	.st5{fill:#FA6D70;}
	.st6{fill:#61D190;}
	.st7{fill:#EEEEEE;}
	.st8{fill:#D59222;}
	.st9{fill:none;}
	.st10{font-family:'Roboto-Bold';}
	.st11{font-size:42px;}
</style>
<g>
	<path class="st0" d="M99.4,89V2.5H57.1l-55.9,90v22.5h65.4v35.2h32.7v-35.2h17.7V89H99.4z M66.7,56.3V89v0H33.5v-0.5l19.8-32.3
		c5-9.3,8.9-17.9,13.6-27.5h0.9C67.1,38.4,66.7,47.5,66.7,56.3z"/>
	<path class="st0" d="M185.7,0c-38.2,0-56.3,33.8-56.3,76.6c0.2,41.8,17,76.1,55.2,76.1c37.7,0,56.1-31.3,56.1-77
		C240.7,35.2,225.3,0,185.7,0z M185.5,126.5c-13.4,0-21.6-16.1-21.4-50c-0.2-34.3,8.4-50.4,21.1-50.4c13.9,0,20.9,17.3,20.9,50
		C206.2,109.7,198.9,126.5,185.5,126.5z"/>
	<path class="st0" d="M351.6,89V2.5h-42.3l-55.9,90v22.5h65.4v35.2h32.7v-35.2h17.7V89H351.6z M318.9,56.3V89v0h-33.2v-0.5
		l19.8-32.3c5-9.3,8.9-17.9,13.6-27.5h0.9C319.3,38.4,318.9,47.5,318.9,56.3z"/>
</g>
<g>
	<path id="color_x5F_7" class="st0" d="M370.6,485.7c0,1.6-1.3,2.9-2.9,2.9H2.9c-1.6,0-2.9-1.3-2.9-2.9s1.3-2.9,2.9-2.9h14h4.7h2.8
		h2H29h0.9h2.6h5.8h2.5h4.7H48h3.7h2.7h4.2h2.7h7.2h45.4l1,1.4h8.2l0,0l2.8,0c0.5,0,0.9-0.6,0.7-1.1l-0.1-0.3h75.5
		c0,0.3-0.1,0.5-0.1,0.8c-0.1,0.7,0.5,0.5,1.1,0.5h34.4c0.5,0,0.9,0.2,0.7-0.3l-0.5-1h42.6h19.5c0,0.1,0.1,0.2,0.1,0.2h3.6
		c0-0.1-0.1-0.2-0.1-0.2h2.1c0,0.1,0.1,0.2,0.1,0.2h1.2c0-0.1,0-0.2-0.1-0.2h1.9c0,0.1,0,0.2,0.1,0.2h0.6c0-0.1,0-0.2-0.1-0.2h1.9
		c0,0.1,0,0.2,0.1,0.2h4.1c0-0.1,0-0.2,0-0.2h1.9c0,0.1,0,0.2,0,0.2h3.2c0-0.1,0-0.2,0.1-0.2h1.9c0,0.1,0,0.2-0.1,0.2h2.5
		c0-0.1,0.1-0.2,0.1-0.2h2c0,0.1-0.1,0.2-0.1,0.2h3.3c0-0.1,0.1-0.2,0.1-0.2h1.4h0.6c0,0.1-0.1,0.2-0.1,0.2h4.9
		c0.1-0.1,0.1-0.2,0.2-0.2h30.7C369.3,482.8,370.6,484.1,370.6,485.7z"/>
	<path id="color_x5F_6" class="st1" d="M239.3,376.7l-0.6,0c-0.7-1.2-1.5-2.2-2.6-3.1c0-0.1,0-0.2,0.1-0.3c0,0,0,0,0.1,0.1
		C237.5,374.3,238.4,375.5,239.3,376.7z M213.3,374.7l15.1,1.1c-1.2-0.8-2.1-1.8-2.6-3.3c-4.7,0.1-9.3-0.1-14-0.5
		c-0.1,0.2-0.2,0.4-0.2,0.7C211.5,373.7,212.2,374.6,213.3,374.7z M236,375.5c-0.1-0.1-0.3-0.3-0.5-0.4c0,0,0,0,0,0
		c0.5,0.5,0.8,0.9,1.1,1.3l0.3,0C236.7,376.2,236.3,375.8,236,375.5z M240.2,376.7l1.5,0.1l5.2,0.4c0,0.1,0.1,0.3,0.1,0.4
		c0.7,2.7,3.1,4.8,6,5c3.1,0.2,5.9-1.6,6.9-4.4l-8.2-0.6l0.3-3.7l8.2,0.6c-0.6-2.9-3-5.2-6.1-5.4c-0.6,0-1.1,0-1.6,0.1
		c-2.4,0.4-4.4,2.1-5.2,4.3l0,0l-3.2-0.2l-5.9-0.5c0.9,1.1,1.6,2.5,2.1,3.7C240.2,376.6,240.2,376.7,240.2,376.7z"/>
	<path id="color_x5F_5" class="st2" d="M233.5,403.5c-0.1,0-0.2-0.1-0.3-0.1c-1-1.6-2.6-3-4.6-3.6c-0.5-0.8-0.9-1.8-1-2.9
		c-11.9-2.8-23.5-7.2-34.2-13c3.9-3.5,8-7.2,10.5-11.7c9.1,6.5,20.4,14.1,27.6,19.8c0,0,0,0,0,0c1,0.6,1.9,1.3,2.8,2
		c1,0.9,1.9,1.8,2.7,2.8c2.1,1.7,3.4,4.8,3.6,7.4c0,0.4-0.6,0.6-0.7,0.2c-0.6-1.5-1.3-3-2.2-4.3c0,0,0,0-0.1-0.1
		c0,0.1-0.1,0.2-0.1,0.3c1.3,1.7,2,4,2.2,5.9c0,0.4-0.6,0.6-0.7,0.2c-0.6-1.5-1.3-3-2.2-4.3c-0.1-0.2-0.2-0.3-0.4-0.5c0,0,0,0,0,0
		c1,1.6,1.6,3.5,1.7,5.2c0,0.4-0.6,0.6-0.7,0.2c-0.6-1.5-1.3-3-2.2-4.3c-0.1-0.1-0.1-0.1-0.2-0.2c-0.1,0-0.2,0.1-0.2,0.1
		c0.8,1.5,1.3,3.2,1.4,4.7c0,0.4-0.6,0.6-0.7,0.2c-0.4-1-0.8-1.9-1.3-2.8C234.1,404.5,233.8,404,233.5,403.5z M210.4,473.1
		c1.1-0.1,2.1-0.4,2.9-1.1l2.4-1.9l0.1-1l-10.3,0.4l0.4,3.9L210.4,473.1z M117.6,466l3.2,1.7l1-0.3l-3.4-8.4l-5.9,2.3l2.5,3
		C115.6,465.2,116.5,465.7,117.6,466z M185.7,300.3c2.2,2.7,5.2,7.6,7.1,10.9c0.8,1.3,2.7,1.2,3.3-0.2l2-4.8l0,0l0.7-1.7l0.9-2.2
		l1.5,0.6c4.5,1.7,9.5-0.5,11.2-5l1.8-4.7l5.3-13.7l-16.3-2.5l-5,8l-1.5-0.6l0.4-1.1c0.6-1.5-0.2-3.2-1.7-3.8l0,0
		c-1.5-0.6-3.2,0.2-3.8,1.7l-0.7,1.9c-0.4,1-0.2,2.2,0.5,3l0,0c-0.3,0.9-0.6,1.8-0.7,2.7l-1.5,2.7l-2.1,3.9l-1.5,2.8
		C185.2,298.9,185.3,299.7,185.7,300.3z M189.3,368.2c4.3,1.1,8.6,2,12.9,2.6c3.1,0.5,6.3,0.9,9.5,1.1c4.6,0.4,9.3,0.6,14,0.5
		c0.5,1.5,1.5,2.6,2.6,3.3c1.3,0.8,2.9,1.3,4.6,1.8c1.2,1.1,1.2,0.9,2.1,2.2c0.2,0.3,0.8,0,0.6-0.4c-0.5-1.5-0.3-1.5-1.5-2.8
		c0.1-0.1,0.1-0.1,0.2-0.2c0.1,0.1,0.1,0.1,0.2,0.2c1.2,1.1,1.7,1.6,2.6,2.9c0.2,0.3,0.8,0,0.6-0.4c-0.4-1.1-0.7-1.9-1.3-2.6
		c-0.3-0.4-0.7-0.8-1.1-1.3c0,0,0,0,0,0c0.2,0.1,0.3,0.2,0.5,0.4c0.3,0.3,0.7,0.6,1,1c0.8,0.8,1.5,1.7,2.2,2.7
		c0.2,0.3,0.8,0,0.6-0.4c-0.3-0.7-0.6-1.4-1-2.2c-0.7-1.2-1.5-2.2-2.6-3.1c0-0.1,0-0.2,0.1-0.3c0,0,0,0,0.1,0.1c1.1,1,2.1,2.2,3,3.4
		c0.1,0.1,0.1,0.2,0.2,0.2c0.2,0.2,0.6,0.1,0.6-0.2c0-0.1,0-0.1,0-0.2c-0.5-1.3-1.2-2.6-2.1-3.7c-0.9-1.1-2-2.1-3.2-2.6
		c-1.9-1.5-4.1-2.7-6.5-3.4c0,0,0,0,0,0c-8.2-3.7-20.5-8.1-30.8-12.2c-0.3-0.1-0.6-0.2-0.9-0.4C195.4,359.2,192.3,363.8,189.3,368.2
		z"/>
	<path id="color_x5F_4" class="st3" d="M121.7,467.4l-3.4-8.4l-0.4-1l24.4-7.5l0,0c0.3-0.1,0.6-0.2,0.8-0.3
		c11.9-4.8,21.6-5.5,34.2-2.5l-21.6-32.8c-9.5-4.2-15-14.4-13.6-24.7l1.1-8.2c3.2-26.9,2.7-57,16.8-80.4c3.3-5.5,11.6-6.7,16.2-6.7
		c0.4,0.2,0.7,0.3,1,0.5c0.1,0.1,0.2,0.1,0.3,0.2c0.2,0.1,0.4,0.3,0.7,0.4c0.1,0.1,0.2,0.2,0.4,0.2c0.2,0.1,0.4,0.3,0.6,0.4
		c0.1,0.1,0.2,0.2,0.3,0.3c0.2,0.1,0.4,0.3,0.5,0.5c0.1,0.1,0.2,0.2,0.3,0.3c0.2,0.2,0.4,0.4,0.6,0.5c0.1,0.1,0.2,0.1,0.2,0.2
		c0.3,0.3,0.5,0.5,0.7,0.8c0,0,0.1,0.1,0.1,0.1c0.2,0.2,0.4,0.5,0.6,0.7c0.1,0.1,0.1,0.2,0.2,0.3c0.1,0.2,0.3,0.4,0.4,0.6
		c0.1,0.1,0.1,0.2,0.2,0.4c0.1,0.2,0.2,0.4,0.3,0.6c0.1,0.1,0.1,0.2,0.2,0.4c0.1,0.2,0.2,0.4,0.3,0.6c0.1,0.1,0.1,0.2,0.2,0.4
		c0.1,0.2,0.2,0.5,0.3,0.7c0,0.1,0.1,0.2,0.1,0.3c0.1,0.3,0.3,0.7,0.4,1c0,0.1,0.1,0.2,0.1,0.2c0.1,0.3,0.2,0.5,0.3,0.8
		c0,0.1,0.1,0.3,0.1,0.4c0.1,0.2,0.1,0.5,0.2,0.7c0,0.1,0.1,0.3,0.1,0.4c0.1,0.2,0.1,0.5,0.2,0.7c0,0.1,0.1,0.3,0.1,0.4
		c0,0.2,0.1,0.5,0.1,0.7c0,0.1,0,0.3,0.1,0.4c0,0.3,0.1,0.6,0.1,0.9c0,0.1,0,0.1,0,0.2c0.5,4.2,0.3,8.6-0.4,12.7
		c-0.6,3.1,1.5,6.1,4.6,6.6c0,0,0.1,0,0.1,0c3.1,0.6,6-1.4,6.7-4.4c0.5-2.2,0.9-4.4,1.1-6.6c0-0.2,0-0.5,0.1-0.7c0-0.1,0-0.1,0-0.2
		c0-0.6,0.1-1.1,0.1-1.7c0-0.2,0-0.3,0-0.5c0-0.4,0-0.8,0-1.2c0-0.2,0-0.4,0-0.6c0-0.4,0-0.8,0-1.1c0-0.2,0-0.4,0-0.6
		c0-0.4-0.1-0.8-0.1-1.3c0-0.1,0-0.3,0-0.4c0-0.6-0.1-1.1-0.2-1.7c0-0.1,0-0.2-0.1-0.4c-0.1-0.4-0.1-0.9-0.2-1.3
		c0-0.2-0.1-0.4-0.1-0.6c-0.1-0.4-0.1-0.7-0.2-1.1l0.7-1.7c4.6,6.7,5.8,15.6,2.4,23.6c-0.8,1.8-1.5,3.7-2.3,5.6
		c-2.2,5.7-4.4,11.9-6.5,18.7c-1.3-0.5-2.5-1.1-3.7-1.6c-2.2-10.2-6.2-33.4-8.4-43.6c-5.7-14.3-24.8-9.3-21.4,5.4l16.5,51.1
		c4.1,1.6,8.4,2.9,12.6,4c-0.9,3.6-1.8,7.4-2.6,11.3c-0.1,0.5-0.2,0.9-0.3,1.4l0.1,6.8l34.1,9.8l1.3,0.4l6.6,1.9
		c0.5,0.1,0.9,0.2,1.4,0.4c1.9,0.7,3.5,2,4.6,3.6c0.5,0.8,0.9,1.7,1.2,2.7c0.3,1.4,0.4,2.8,0,4.3c-0.1,0.2-0.1,0.5-0.2,0.7
		l-12.1,40.4l-0.2,0.6l-5.1,17l-1,0l-10.3,0.4l-1.3,0.1l0.6-14.7l0-0.5l0.3-6.7c-0.1-13.4,2.2-23.1,9.9-33.9l-29.8,1.8l10,37.4
		c0.2,0.8,0.2,1.5,0.2,2.3c0,0.2,0,0.3,0,0.5c-0.5,4.2-3.9,7.7-8.4,8l-65,4.5L121.7,467.4z"/>
	<path id="color_x5F_3" class="st4" d="M190.7,288.9l-1.5,2.7c-1.1-3.3-1.1-7.1-0.2-10.5c0.5-2,1.2-3.9,2.1-5.8l12.1,1.8l-5,8
		l-1.5-0.6l0.4-1.1c0.6-1.5-0.2-3.2-1.7-3.8l0,0c-1.5-0.6-3.2,0.2-3.8,1.7l-0.7,1.9c-0.4,1-0.2,2.2,0.5,3l0,0
		C191,287.1,190.8,288,190.7,288.9z M214.2,293.3c1.8,0.2,3.6,0.1,5.2-0.6c2.7-1.2,4.4-4.9,2.6-7.1c0,0,0,0,0.1,0
		c2.5-0.5,3.5-3.1,2.6-5.1l-5.1-0.8L214.2,293.3z"/>
	<path id="color_x5F_2" class="st5" d="M177.6,295.6c0.2,0.1,0.4,0.3,0.7,0.4c0.1,0.1,0.2,0.2,0.4,0.2c0.2,0.1,0.4,0.3,0.6,0.4
		c0.1,0.1,0.2,0.2,0.3,0.3c0.2,0.1,0.4,0.3,0.5,0.5c0.1,0.1,0.2,0.2,0.3,0.3c0.2,0.2,0.4,0.4,0.6,0.5c0.1,0.1,0.2,0.1,0.2,0.2
		c0.3,0.3,0.5,0.5,0.7,0.8c0,0,0.1,0.1,0.1,0.1c0.2,0.2,0.4,0.5,0.6,0.7c0.1,0.1,0.1,0.2,0.2,0.3c0.1,0.2,0.3,0.4,0.4,0.6
		c0.1,0.1,0.1,0.2,0.2,0.4c0.1,0.2,0.2,0.4,0.3,0.6c0.1,0.1,0.1,0.2,0.2,0.4c0.1,0.2,0.2,0.4,0.3,0.6c0.1,0.1,0.1,0.2,0.2,0.4
		c0.1,0.2,0.2,0.5,0.3,0.7c0,0.1,0.1,0.2,0.1,0.3c0.1,0.3,0.3,0.7,0.4,1c0,0.1,0.1,0.2,0.1,0.2c0.1,0.3,0.2,0.5,0.3,0.8
		c0,0.1,0.1,0.3,0.1,0.4c0.1,0.2,0.1,0.5,0.2,0.7c0,0.1,0.1,0.3,0.1,0.4c0.1,0.2,0.1,0.5,0.2,0.7c0,0.1,0.1,0.3,0.1,0.4
		c0,0.2,0.1,0.5,0.1,0.7c0,0.1,0,0.3,0.1,0.4c0,0.3,0.1,0.6,0.1,0.9c0,0.1,0,0.1,0,0.2l0,0c0.5,4.2,0.3,8.6-0.4,12.7
		c-0.6,3.1,1.5,6.1,4.6,6.6c0,0,0.1,0,0.1,0c3.1,0.6,6-1.4,6.7-4.4c0.5-2.2,0.9-4.4,1.1-6.6c0,0,0,0,0,0c0-0.2,0-0.5,0.1-0.7
		c0-0.1,0-0.1,0-0.2c0-0.6,0.1-1.1,0.1-1.7c0-0.2,0-0.3,0-0.5c0-0.4,0-0.8,0-1.2c0-0.2,0-0.4,0-0.6c0-0.4,0-0.8,0-1.1
		c0-0.2,0-0.4,0-0.6c0-0.4-0.1-0.8-0.1-1.3c0-0.1,0-0.3,0-0.4c0-0.6-0.1-1.1-0.2-1.7c0-0.1,0-0.2-0.1-0.4c-0.1-0.4-0.1-0.9-0.2-1.3
		c0-0.2-0.1-0.4-0.1-0.6c-0.1-0.4-0.1-0.7-0.2-1.1l-2,4.8c-0.6,1.4-2.5,1.5-3.3,0.2c-1.9-3.3-4.9-8.2-7.1-10.9
		c-0.5-0.6-0.5-1.4-0.2-2l1.5-2.8c-3.8-0.8-6.7-0.7-10.8-0.7c0.4,0.2,0.7,0.3,1,0.5C177.4,295.5,177.5,295.5,177.6,295.6z
		 M188.7,350.9c-2.2-10.2-6.2-33.4-8.4-43.6c-5.7-14.3-24.8-9.3-21.4,5.4l16.5,51.1c4.1,1.6,8.4,2.9,12.6,4
		c-0.9,3.6-1.8,7.4-2.6,11.3c2.6,1.6,5.2,3.2,7.9,4.6c3.9-3.5,8-7.2,10.5-11.7c-0.6-0.4-1.1-0.8-1.7-1.2c-4.3-0.7-8.7-1.5-12.9-2.6
		c2.9-4.4,6-9,7.4-13.9c0.3,0.1,0.6,0.2,0.9,0.4c0.4-6.7,0.9-14.2,1.2-20.8c-2.2,5.7-4.4,11.9-6.5,18.7
		C191.1,351.9,189.9,351.4,188.7,350.9z"/>
	<g>
		<path class="st6" d="M62.4,432.5c-2-1.1-4.1-2.1-6.3-2.8c-2.5,7.5-4.7,15-6.1,22.9c-0.3,1.6-2.7,0.9-2.4-0.7
			c1.4-7.8,3.6-15.4,6.1-22.9c-2-0.5-4.1-0.9-6.2-1.1c-3.6,18.3-7.4,36.6-6.8,55h4.7c2.6-12.3,6.9-24.3,11.2-35.9
			C58.4,442.1,60.3,437.3,62.4,432.5z"/>
		<path class="st6" d="M68.9,445.5c1-1.9,1.9-3.7,3-5.6c-0.6-0.6-1.1-1.1-1.7-1.7c-1.8,2.9-3.6,5.8-5.5,8.7
			c-0.9,1.3-3.1,0.1-2.2-1.3c2-3,3.9-6,5.8-9.1c-1.2-1-2.4-1.9-3.7-2.7c-1.9,4.5-3.8,9.1-5.5,13.8c-4.2,11.4-8.4,23.2-11,35.2h3.7
			c1.9-4.3,3.9-8.5,5.7-12.4C61.1,462,64.8,453.7,68.9,445.5z"/>
		<path class="st6" d="M81.4,456.9c-3.6,4.1-6.7,8.5-8.5,13.6c-0.5,1.5-3,0.9-2.4-0.7c2.1-6,5.9-11,10.1-15.7c-1-3-2.4-5.8-4.1-8.4
			c-3.7,7.5-6.9,15.2-10,23c-1.8,4.7-3.6,9.4-5.3,14.1h7.2c4.3-5.8,9.1-11.3,13.9-16.7c0-3-0.3-5.9-0.9-8.8
			C81.5,457.1,81.4,457,81.4,456.9z"/>
		<path class="st6" d="M72.4,448.3c0.8-1.7,1.6-3.3,2.5-5c-0.4-0.5-0.8-1-1.2-1.5c-1.1,2.1-2.2,4.2-3.3,6.4
			c-3.7,7.4-7,14.9-10.4,22.4c-1.7,3.9-3.7,8-5.6,12.2h4.2c1.6-4.4,3.2-8.8,4.9-13.2C66.3,462.5,69,455.2,72.4,448.3z"/>
		<path class="st6" d="M45.1,427.7c-0.2,0-0.3,0-0.5,0c-3,0-5.9,0.4-8.8,1.1c-0.7,9.9-1.1,19.8-0.2,29.7c0.1,1.6-2.4,1.6-2.5,0
			c-0.9-9.6-0.6-19.3,0.1-28.9c-3,1-5.8,2.4-8.5,4.1c1.7,16.5,4.1,32.9,7.7,49.1h5.8C37.7,464.4,41.5,446,45.1,427.7z"/>
		<path class="st6" d="M18.8,438.5c0.9,2.6,1.7,5.2,2.6,7.8c0.6,1.5-1.9,2.2-2.4,0.7c-0.8-2.1-1.5-4.2-2.2-6.4
			c-0.4,0.5-0.9,1-1.3,1.5c5,13.4,9.3,27.1,13.5,40.9h0.9c-3.5-15.6-5.9-31.5-7.5-47.4C21.1,436.3,19.9,437.4,18.8,438.5z"/>
		<path class="st6" d="M8.2,457.8c-0.4,2.2-0.5,4.4-0.5,6.6c1.7,3.5,3.9,6.9,5.6,10.4c1.3,2.7,2.5,5.4,3.7,8.1h4.7
			c-0.2-0.3-0.3-0.6-0.5-1C16.9,473.8,12.7,465.7,8.2,457.8z"/>
		<path class="st6" d="M347.6,462.5c0-0.1-0.1-0.2-0.1-0.3c-2.7,3.1-5,6.4-6.4,10.2c-0.4,1.1-2.2,0.6-1.8-0.5
			c1.6-4.5,4.4-8.2,7.6-11.8c-0.8-2.2-1.8-4.4-3.1-6.3c-2.8,5.7-5.2,11.4-7.5,17.3c-1.5,3.9-3,7.8-4.4,11.8c0,0.1-0.1,0.2-0.1,0.2
			h4.9v0c0.1-0.1,0.1-0.2,0.2-0.2c3.4-4.8,7.4-9.3,11.3-13.7C348.4,466.9,348.2,464.7,347.6,462.5z"/>
		<path class="st6" d="M11.2,448.8c1.8,3.3,3.5,6.6,5.1,10c0.7,1.4-1.5,2.7-2.2,1.3c-1.3-2.8-2.8-5.6-4.2-8.4
			c-0.3,0.8-0.6,1.7-0.9,2.6c5.3,9.2,10.1,18.5,15,27.9c0.1,0.2,0.3,0.5,0.4,0.7h2c-3.9-12.9-7.9-25.8-12.6-38.5
			C12.8,445.8,12,447.3,11.2,448.8z"/>
		<path class="st6" d="M331.4,468.1c2.2-4.9,4.4-9.7,6.8-14.5c0.7-1.4,1.5-2.8,2.2-4.2c-0.4-0.4-0.8-0.9-1.3-1.3
			c-1.4,2.2-2.7,4.4-4.2,6.5c-0.7,1-2.3,0.1-1.6-0.9c1.5-2.2,2.9-4.5,4.4-6.8c-0.9-0.7-1.8-1.4-2.8-2.1c-1.2,2.9-2.4,5.7-3.5,8.6
			c-0.2,0.6-0.5,1.1-0.7,1.7c-3.3,8.9-6.6,18.2-8.5,27.6c0,0.1,0,0.2-0.1,0.2h2.5c0-0.1,0.1-0.2,0.1-0.2c1.6-3.6,3.3-7.2,4.8-10.5
			C330.1,470.9,330.8,469.5,331.4,468.1z"/>
		<path class="st6" d="M320.3,440.3c-0.1,0-0.3,0-0.4,0c-2.2,0-4.4,0.3-6.6,0.9c-0.5,7.4-0.8,14.8-0.1,22.3c0.1,1.2-1.8,1.2-1.9,0
			c-0.7-7.2-0.4-14.5,0.1-21.7c-2.2,0.8-4.4,1.8-6.4,3.1c1.3,12.8,3.2,25.5,6.1,38c0,0.1,0,0.2,0.1,0.2h4.1c0-0.1,0-0.2,0-0.2
			C314.6,468.6,317.5,454.4,320.3,440.3z"/>
		<path class="st6" d="M331.4,448.4c0.6-1.5,1.2-3,1.9-4.5c-0.6-0.3-1.2-0.7-1.9-0.9c-0.9-0.4-1.9-0.8-2.9-1.2
			c-1.9,5.6-3.6,11.3-4.6,17.2c-0.2,1.2-2,0.7-1.8-0.5c1-5.9,2.7-11.6,4.6-17.2c-1.5-0.4-3.1-0.7-4.6-0.8
			c-2.8,14.1-5.7,28.3-5.1,42.5c0,0.1,0,0.2,0,0.2h3.2c0-0.1,0-0.2,0.1-0.2c1.9-9.6,5.3-19.1,8.7-28.1
			C329.7,452.6,330.6,450.5,331.4,448.4z"/>
		<path class="st6" d="M340.8,455.8c0.6-1.2,1.2-2.5,1.8-3.7c-0.3-0.4-0.6-0.8-0.9-1.1c-0.8,1.6-1.7,3.2-2.5,4.8
			c-2.8,5.5-5.3,11.2-7.8,16.8c0,0,0,0.1-0.1,0.1c-1.4,3.2-3.1,6.7-4.7,10.2c0,0.1-0.1,0.2-0.1,0.2h3.3c0-0.1,0.1-0.2,0.1-0.2
			c0.5-1.3,0.9-2.5,1.4-3.8c0.9-2.4,1.8-4.8,2.7-7.3C336.2,466.4,338.3,460.9,340.8,455.8z"/>
		<path class="st6" d="M296.8,452.8c-0.7,1.1-1.4,2.2-2,3.4c1.3,2.5,2.6,5,3.8,7.5c0.5,1.1-1.1,2-1.6,0.9c-1-2.1-2.1-4.2-3.2-6.3
			c-0.2,0.6-0.5,1.3-0.7,1.9c4,6.9,7.6,13.9,11.3,20.9c0.3,0.6,0.6,1.1,0.9,1.7c0,0.1,0.1,0.2,0.1,0.2h1.2c0-0.1,0-0.2-0.1-0.2
			C303.6,472.7,300.5,462.6,296.8,452.8z"/>
		<path class="st6" d="M302.3,481c-3.2-6.1-6.3-12.1-9.7-18.1c-0.3,1.6-0.4,3.3-0.4,4.9c1.3,2.6,2.9,5.2,4.2,7.8
			c1.1,2.4,2.2,4.8,3.3,7.2c0,0.1,0.1,0.2,0.1,0.2h3.6c0-0.1-0.1-0.2-0.1-0.2C302.9,482.2,302.6,481.6,302.3,481z"/>
		<path class="st6" d="M303.2,446c-0.9,0.7-1.9,1.5-2.7,2.3c0.6,2,1.3,3.9,2,5.8c0.4,1.1-1.4,1.6-1.8,0.5c-0.6-1.6-1.1-3.2-1.6-4.8
			c-0.3,0.4-0.6,0.7-0.9,1.1c3.9,10.5,7.2,21.2,10.5,31.9c0,0.1,0,0.2,0.1,0.2h0.6c0-0.1,0-0.2-0.1-0.2
			C306.4,470.7,304.5,458.4,303.2,446z"/>
	</g>
	<g>
		<path class="st0" d="M280.1,346.6h-19L244,373.3l3.2,0.2c0.8-2.3,2.8-3.9,5.2-4.3l11.1-17.3h34.1L277.7,383h-34.1l3.4-5.3
			c0-0.1-0.1-0.3-0.1-0.4l-5.2-0.4l-7.3,11.4v3.1v0.8v1.8c1,0.9,1.9,1.8,2.7,2.8c2.1,1.7,3.4,4.8,3.6,7.4c0,0.4-0.6,0.6-0.7,0.2
			c-0.6-1.5-1.3-3-2.2-4.3c0,0,0,0-0.1-0.1c0,0.1-0.1,0.2-0.1,0.3c1.3,1.7,2,4,2.2,5.9c0,0.4-0.6,0.6-0.7,0.2
			c-0.6-1.5-1.3-3-2.2-4.3c-0.1-0.2-0.2-0.3-0.4-0.5c0,0,0,0,0,0c1,1.6,1.6,3.5,1.7,5.2c0,0.4-0.6,0.6-0.7,0.2
			c-0.6-1.5-1.3-3-2.2-4.3c-0.1-0.1-0.1-0.1-0.2-0.2c-0.1,0-0.2,0.1-0.2,0.1c0.8,1.5,1.3,3.2,1.4,4.7c0,0.4-0.6,0.6-0.7,0.2
			c-0.4-1-0.8-1.9-1.3-2.8v1.1c0.3,1.4,0.4,2.8,0,4.3v69c1.3,0.7,2.3,1.8,3,3.1l0.2,0.4h42.6v-94.5l26.7-41.7H280.1z"/>
	</g>
	<path id="color_x5F_2_1_" class="st7" d="M331.3,482.8V479c-0.5,1.3-0.9,2.5-1.4,3.8H331.3z M320.2,482.8h1.9
		c1.9-9.5,5.2-18.7,8.5-27.6c0.2-0.6,0.4-1.1,0.7-1.7v-5.1c-0.9,2.1-1.7,4.2-2.5,6.4C325.4,463.8,322.1,473.2,320.2,482.8z
		 M280,482.8h19.5c-1.1-2.4-2.1-4.8-3.3-7.2c-1.3-2.7-2.9-5.2-4.2-7.8c0-1.6,0.1-3.3,0.4-4.9c3.4,6,6.5,12,9.7,18.1
		c0.3,0.6,0.7,1.3,1,1.9h2.1c-0.3-0.6-0.6-1.1-0.9-1.7c-3.7-7-7.3-14.1-11.3-20.9c0.2-0.6,0.4-1.3,0.7-1.9c1.1,2.1,2.2,4.2,3.2,6.3
		c0.5,1.1,2.1,0.1,1.6-0.9c-1.2-2.5-2.5-5-3.8-7.5c0.6-1.2,1.2-2.3,2-3.4c3.7,9.9,6.8,20,9.8,30.1h1.9c-3.3-10.7-6.5-21.4-10.5-31.9
		c0.3-0.4,0.6-0.7,0.9-1.1c0.5,1.6,1.1,3.2,1.6,4.8c0.4,1.1,2.2,0.6,1.8-0.5c-0.7-1.9-1.3-3.9-2-5.8c0.9-0.8,1.8-1.6,2.7-2.3
		c1.3,12.4,3.1,24.7,5.9,36.8h1.9c-2.9-12.5-4.8-25.2-6.1-38c2-1.3,4.1-2.3,6.4-3.1c-0.5,7.2-0.8,14.5-0.1,21.7c0.1,1.2,2,1.2,1.9,0
		c-0.7-7.4-0.4-14.9,0.1-22.3c2.1-0.6,4.4-0.9,6.6-0.9c0.1,0,0.3,0,0.4,0c-2.7,14.2-5.7,28.4-5.1,42.6h1.9
		c-0.6-14.2,2.3-28.4,5.1-42.5c1.6,0.1,3.1,0.4,4.6,0.8c-1.9,5.6-3.6,11.3-4.6,17.2c-0.2,1.2,1.6,1.7,1.8,0.5
		c1-5.9,2.7-11.6,4.6-17.2c1,0.3,1.9,0.7,2.9,1.2v-67.4v-1.2v-27.7h-24.6L280,388.3V482.8z M324.6,482.8h2c1.5-3.5,3.2-6.9,4.7-10.2
		v-4.6c-0.6,1.4-1.3,2.8-1.9,4.3C327.9,475.7,326.2,479.2,324.6,482.8z M277.6,383l19.9-31.1h-34.1l-11.1,17.3
		c0.5-0.1,1.1-0.1,1.6-0.1c3.1,0.2,5.5,2.5,6.1,5.4l-8.2-0.6l-0.3,3.7l8.2,0.6c-1,2.8-3.8,4.6-6.9,4.4c-2.9-0.2-5.3-2.3-6-5
		l-3.4,5.3L277.6,383L277.6,383z"/>
	<path id="color_x5F_2_2_" class="st8" d="M234.4,479.3c-0.7-0.4-1.4-0.7-2.2-0.8l-5.2-1c-2.7-0.5-5.9-1.4-7.5-3.6l-3-4.2l-0.6,0.5
		l-2.4,1.9c-0.8,0.7-1.8,1.1-2.9,1.1l-4.5,0.3l-1,0.1c0,0-2.3,5.1-3,9.4c0,0.3-0.1,0.5-0.1,0.8c-0.1,0.7,0.5,0.5,1.1,0.5h34.4
		c0.5,0,0.9,0.2,0.7-0.3l-0.5-1l-0.2-0.4C236.6,481.1,235.6,480,234.4,479.3z M123.1,484.2L123.1,484.2h2.8c0.5,0,0.9-0.6,0.7-1.1
		l-0.1-0.3l-0.6-1.2c-1-2.1-2.9-3.5-5.2-4l-0.5-0.1c-0.6-1.9-1-3.8-0.4-5.6l1.9-3.8l-0.8-0.4l-3.2-1.7c-1-0.3-1.9-0.9-2.6-1.7
		l-2.5-3l-1-1.3c0,0-6.2,1.3-10.1,3.6c-0.6,0.3-0.8,1.1-0.4,1.7l12.9,17.5l1,1.4L123.1,484.2L123.1,484.2z"/>
	<path class="st3" d="M219.5,279.6l5.1,0.8l3.8,0.6l-3.8-5.2l-0.8-7c-0.9-8.1-7.9-14.1-16-13.8c-1.2,0-2.6,0.1-4.2,0.3
		c-9.7,1.2-16.3,10.2-14.6,19.8l2,0.3l12.1,1.8L219.5,279.6z"/>
</g>
<rect x="22.2" y="195.6" class="st9" width="326.1" height="33.9"/>
<text transform="matrix(1 0 0 1 34.1568 227.1397)" class="st10 st11">Page Not Found</text>
</svg>
