<?xml version="1.0" encoding="utf-8"?>
<!-- Generator: Adobe Illustrator 25.2.3, SVG Export Plug-In . SVG Version: 6.00 Build 0)  -->
<svg version="1.1" id="Layer_1" xmlns="http://www.w3.org/2000/svg" xmlns:xlink="http://www.w3.org/1999/xlink" x="0px" y="0px"
	 viewBox="0 0 679.2 488.6" style="enable-background:new 0 0 679.2 488.6;" xml:space="preserve">
<style type="text/css">
	.st0{fill:#D4D5D5;}
	.st1{fill:#78909C;}
	.st2{fill:#FECCB3;}
	.st3{fill:#008DC9;}
	.st4{fill:#8B624B;}
	.st5{fill:#FA6D70;}
	.st6{fill:#61D190;}
	.st7{fill:#EEEEEE;}
	.st8{fill:#D59222;}
	.st9{fill:none;}
	.st10{font-family:'Roboto-Bold';}
	.st11{font-size:42px;}
</style>
<g>
	<path class="st0" d="M253.7,89V2.5h-42.3l-55.9,90V115h65.4v35.2h32.7V115h17.7V89H253.7z M221,56.3V89l0,0h-33.2v-0.5l19.8-32.3
		c5-9.3,8.9-17.9,13.6-27.5h0.9C221.4,38.4,221,47.5,221,56.3z"/>
	<path class="st0" d="M340,0c-38.2,0-56.3,33.8-56.3,76.6c0.2,41.8,17,76.1,55.2,76.1c37.7,0,56.1-31.3,56.1-77
		C395,35.2,379.6,0,340,0z M339.8,126.5c-13.4,0-21.6-16.1-21.4-50c-0.2-34.3,8.4-50.4,21.1-50.4c13.9,0,20.9,17.3,20.9,50
		C360.5,109.7,353.2,126.5,339.8,126.5z"/>
	<path class="st0" d="M505.9,89V2.5h-42.3l-55.9,90V115h65.4v35.2h32.7V115h17.7V89H505.9z M473.2,56.3V89l0,0H440v-0.5l19.8-32.3
		c5-9.3,8.9-17.9,13.6-27.5h0.9C473.6,38.4,473.2,47.5,473.2,56.3z"/>
</g>
<g>
	<path id="color_x5F_7" class="st0" d="M524.9,485.7c0,1.6-1.3,2.9-2.9,2.9H157.2c-1.6,0-2.9-1.3-2.9-2.9s1.3-2.9,2.9-2.9h14h4.7
		h2.8h2h2.6h0.9h2.6h5.8h2.5h4.7h2.5h3.7h2.7h4.2h2.7h7.2h45.4l1,1.4h8.2l0,0h2.8c0.5,0,0.9-0.6,0.7-1.1l-0.1-0.3h75.5
		c0,0.3-0.1,0.5-0.1,0.8c-0.1,0.7,0.5,0.5,1.1,0.5h34.4c0.5,0,0.9,0.2,0.7-0.3l-0.5-1h42.6H454c0,0.1,0.1,0.2,0.1,0.2h3.6
		c0-0.1-0.1-0.2-0.1-0.2h2.1c0,0.1,0.1,0.2,0.1,0.2h1.2c0-0.1,0-0.2-0.1-0.2h1.9c0,0.1,0,0.2,0.1,0.2h0.6c0-0.1,0-0.2-0.1-0.2h1.9
		c0,0.1,0,0.2,0.1,0.2h4.1c0-0.1,0-0.2,0-0.2h1.9c0,0.1,0,0.2,0,0.2h3.2c0-0.1,0-0.2,0.1-0.2h1.9c0,0.1,0,0.2-0.1,0.2h2.5
		c0-0.1,0.1-0.2,0.1-0.2h2c0,0.1-0.1,0.2-0.1,0.2h3.3c0-0.1,0.1-0.2,0.1-0.2h1.4h0.6c0,0.1-0.1,0.2-0.1,0.2h4.9
		c0.1-0.1,0.1-0.2,0.2-0.2h30.7C523.6,482.8,524.9,484.1,524.9,485.7z"/>
	<path id="color_x5F_6" class="st1" d="M393.6,376.7H393c-0.7-1.2-1.5-2.2-2.6-3.1c0-0.1,0-0.2,0.1-0.3c0,0,0,0,0.1,0.1
		C391.8,374.3,392.7,375.5,393.6,376.7z M367.6,374.7l15.1,1.1c-1.2-0.8-2.1-1.8-2.6-3.3c-4.7,0.1-9.3-0.1-14-0.5
		c-0.1,0.2-0.2,0.4-0.2,0.7C365.8,373.7,366.5,374.6,367.6,374.7z M390.3,375.5c-0.1-0.1-0.3-0.3-0.5-0.4l0,0
		c0.5,0.5,0.8,0.9,1.1,1.3h0.3C391,376.2,390.6,375.8,390.3,375.5z M394.5,376.7l1.5,0.1l5.2,0.4c0,0.1,0.1,0.3,0.1,0.4
		c0.7,2.7,3.1,4.8,6,5c3.1,0.2,5.9-1.6,6.9-4.4l-8.2-0.6l0.3-3.7l8.2,0.6c-0.6-2.9-3-5.2-6.1-5.4c-0.6,0-1.1,0-1.6,0.1
		c-2.4,0.4-4.4,2.1-5.2,4.3l0,0l-3.2-0.2l-5.9-0.5c0.9,1.1,1.6,2.5,2.1,3.7C394.5,376.6,394.5,376.7,394.5,376.7z"/>
	<path id="color_x5F_5" class="st2" d="M387.8,403.5c-0.1,0-0.2-0.1-0.3-0.1c-1-1.6-2.6-3-4.6-3.6c-0.5-0.8-0.9-1.8-1-2.9
		c-11.9-2.8-23.5-7.2-34.2-13c3.9-3.5,8-7.2,10.5-11.7c9.1,6.5,20.4,14.1,27.6,19.8l0,0c1,0.6,1.9,1.3,2.8,2c1,0.9,1.9,1.8,2.7,2.8
		c2.1,1.7,3.4,4.8,3.6,7.4c0,0.4-0.6,0.6-0.7,0.2c-0.6-1.5-1.3-3-2.2-4.3c0,0,0,0-0.1-0.1c0,0.1-0.1,0.2-0.1,0.3
		c1.3,1.7,2,4,2.2,5.9c0,0.4-0.6,0.6-0.7,0.2c-0.6-1.5-1.3-3-2.2-4.3c-0.1-0.2-0.2-0.3-0.4-0.5l0,0c1,1.6,1.6,3.5,1.7,5.2
		c0,0.4-0.6,0.6-0.7,0.2c-0.6-1.5-1.3-3-2.2-4.3c-0.1-0.1-0.1-0.1-0.2-0.2c-0.1,0-0.2,0.1-0.2,0.1c0.8,1.5,1.3,3.2,1.4,4.7
		c0,0.4-0.6,0.6-0.7,0.2c-0.4-1-0.8-1.9-1.3-2.8C388.4,404.5,388.1,404,387.8,403.5z M364.7,473.1c1.1-0.1,2.1-0.4,2.9-1.1l2.4-1.9
		l0.1-1l-10.3,0.4l0.4,3.9L364.7,473.1z M271.9,466l3.2,1.7l1-0.3l-3.4-8.4l-5.9,2.3l2.5,3C269.9,465.2,270.8,465.7,271.9,466z
		 M340,300.3c2.2,2.7,5.2,7.6,7.1,10.9c0.8,1.3,2.7,1.2,3.3-0.2l2-4.8l0,0l0.7-1.7l0.9-2.2l1.5,0.6c4.5,1.7,9.5-0.5,11.2-5l1.8-4.7
		l5.3-13.7l-16.3-2.5l-5,8l-1.5-0.6l0.4-1.1c0.6-1.5-0.2-3.2-1.7-3.8l0,0c-1.5-0.6-3.2,0.2-3.8,1.7l-0.7,1.9c-0.4,1-0.2,2.2,0.5,3
		l0,0c-0.3,0.9-0.6,1.8-0.7,2.7l-1.5,2.7l-2.1,3.9l-1.5,2.8C339.5,298.9,339.6,299.7,340,300.3z M343.6,368.2
		c4.3,1.1,8.6,2,12.9,2.6c3.1,0.5,6.3,0.9,9.5,1.1c4.6,0.4,9.3,0.6,14,0.5c0.5,1.5,1.5,2.6,2.6,3.3c1.3,0.8,2.9,1.3,4.6,1.8
		c1.2,1.1,1.2,0.9,2.1,2.2c0.2,0.3,0.8,0,0.6-0.4c-0.5-1.5-0.3-1.5-1.5-2.8c0.1-0.1,0.1-0.1,0.2-0.2c0.1,0.1,0.1,0.1,0.2,0.2
		c1.2,1.1,1.7,1.6,2.6,2.9c0.2,0.3,0.8,0,0.6-0.4c-0.4-1.1-0.7-1.9-1.3-2.6c-0.3-0.4-0.7-0.8-1.1-1.3l0,0c0.2,0.1,0.3,0.2,0.5,0.4
		c0.3,0.3,0.7,0.6,1,1c0.8,0.8,1.5,1.7,2.2,2.7c0.2,0.3,0.8,0,0.6-0.4c-0.3-0.7-0.6-1.4-1-2.2c-0.7-1.2-1.5-2.2-2.6-3.1
		c0-0.1,0-0.2,0.1-0.3c0,0,0,0,0.1,0.1c1.1,1,2.1,2.2,3,3.4c0.1,0.1,0.1,0.2,0.2,0.2c0.2,0.2,0.6,0.1,0.6-0.2c0-0.1,0-0.1,0-0.2
		c-0.5-1.3-1.2-2.6-2.1-3.7c-0.9-1.1-2-2.1-3.2-2.6c-1.9-1.5-4.1-2.7-6.5-3.4l0,0c-8.2-3.7-20.5-8.1-30.8-12.2
		c-0.3-0.1-0.6-0.2-0.9-0.4C349.7,359.2,346.6,363.8,343.6,368.2z"/>
	<path id="color_x5F_4" class="st3" d="M276,467.4l-3.4-8.4l-0.4-1l24.4-7.5l0,0c0.3-0.1,0.6-0.2,0.8-0.3
		c11.9-4.8,21.6-5.5,34.2-2.5L310,414.9c-9.5-4.2-15-14.4-13.6-24.7l1.1-8.2c3.2-26.9,2.7-57,16.8-80.4c3.3-5.5,11.6-6.7,16.2-6.7
		c0.4,0.2,0.7,0.3,1,0.5c0.1,0.1,0.2,0.1,0.3,0.2c0.2,0.1,0.4,0.3,0.7,0.4c0.1,0.1,0.2,0.2,0.4,0.2c0.2,0.1,0.4,0.3,0.6,0.4
		c0.1,0.1,0.2,0.2,0.3,0.3c0.2,0.1,0.4,0.3,0.5,0.5c0.1,0.1,0.2,0.2,0.3,0.3c0.2,0.2,0.4,0.4,0.6,0.5c0.1,0.1,0.2,0.1,0.2,0.2
		c0.3,0.3,0.5,0.5,0.7,0.8l0.1,0.1c0.2,0.2,0.4,0.5,0.6,0.7c0.1,0.1,0.1,0.2,0.2,0.3c0.1,0.2,0.3,0.4,0.4,0.6
		c0.1,0.1,0.1,0.2,0.2,0.4c0.1,0.2,0.2,0.4,0.3,0.6c0.1,0.1,0.1,0.2,0.2,0.4c0.1,0.2,0.2,0.4,0.3,0.6c0.1,0.1,0.1,0.2,0.2,0.4
		c0.1,0.2,0.2,0.5,0.3,0.7c0,0.1,0.1,0.2,0.1,0.3c0.1,0.3,0.3,0.7,0.4,1c0,0.1,0.1,0.2,0.1,0.2c0.1,0.3,0.2,0.5,0.3,0.8
		c0,0.1,0.1,0.3,0.1,0.4c0.1,0.2,0.1,0.5,0.2,0.7c0,0.1,0.1,0.3,0.1,0.4c0.1,0.2,0.1,0.5,0.2,0.7c0,0.1,0.1,0.3,0.1,0.4
		c0,0.2,0.1,0.5,0.1,0.7c0,0.1,0,0.3,0.1,0.4c0,0.3,0.1,0.6,0.1,0.9c0,0.1,0,0.1,0,0.2c0.5,4.2,0.3,8.6-0.4,12.7
		c-0.6,3.1,1.5,6.1,4.6,6.6h0.1c3.1,0.6,6-1.4,6.7-4.4c0.5-2.2,0.9-4.4,1.1-6.6c0-0.2,0-0.5,0.1-0.7c0-0.1,0-0.1,0-0.2
		c0-0.6,0.1-1.1,0.1-1.7c0-0.2,0-0.3,0-0.5c0-0.4,0-0.8,0-1.2c0-0.2,0-0.4,0-0.6c0-0.4,0-0.8,0-1.1c0-0.2,0-0.4,0-0.6
		c0-0.4-0.1-0.8-0.1-1.3c0-0.1,0-0.3,0-0.4c0-0.6-0.1-1.1-0.2-1.7c0-0.1,0-0.2-0.1-0.4c-0.1-0.4-0.1-0.9-0.2-1.3
		c0-0.2-0.1-0.4-0.1-0.6c-0.1-0.4-0.1-0.7-0.2-1.1l0.7-1.7c4.6,6.7,5.8,15.6,2.4,23.6c-0.8,1.8-1.5,3.7-2.3,5.6
		c-2.2,5.7-4.4,11.9-6.5,18.7c-1.3-0.5-2.5-1.1-3.7-1.6c-2.2-10.2-6.2-33.4-8.4-43.6c-5.7-14.3-24.8-9.3-21.4,5.4l16.5,51.1
		c4.1,1.6,8.4,2.9,12.6,4c-0.9,3.6-1.8,7.4-2.6,11.3c-0.1,0.5-0.2,0.9-0.3,1.4l0.1,6.8l34.1,9.8l1.3,0.4l6.6,1.9
		c0.5,0.1,0.9,0.2,1.4,0.4c1.9,0.7,3.5,2,4.6,3.6c0.5,0.8,0.9,1.7,1.2,2.7c0.3,1.4,0.4,2.8,0,4.3c-0.1,0.2-0.1,0.5-0.2,0.7
		l-12.1,40.4l-0.2,0.6l-5.1,17h-1l-10.3,0.4l-1.3,0.1l0.6-14.7v-0.5l0.3-6.7c-0.1-13.4,2.2-23.1,9.9-33.9l-29.8,1.8l10,37.4
		c0.2,0.8,0.2,1.5,0.2,2.3c0,0.2,0,0.3,0,0.5c-0.5,4.2-3.9,7.7-8.4,8l-65,4.5L276,467.4z"/>
	<path id="color_x5F_3" class="st4" d="M345,288.9l-1.5,2.7c-1.1-3.3-1.1-7.1-0.2-10.5c0.5-2,1.2-3.9,2.1-5.8l12.1,1.8l-5,8
		l-1.5-0.6l0.4-1.1c0.6-1.5-0.2-3.2-1.7-3.8l0,0c-1.5-0.6-3.2,0.2-3.8,1.7l-0.7,1.9c-0.4,1-0.2,2.2,0.5,3l0,0
		C345.3,287.1,345.1,288,345,288.9z M368.5,293.3c1.8,0.2,3.6,0.1,5.2-0.6c2.7-1.2,4.4-4.9,2.6-7.1c0,0,0,0,0.1,0
		c2.5-0.5,3.5-3.1,2.6-5.1l-5.1-0.8L368.5,293.3z"/>
	<path id="color_x5F_2" class="st5" d="M331.9,295.6c0.2,0.1,0.4,0.3,0.7,0.4c0.1,0.1,0.2,0.2,0.4,0.2c0.2,0.1,0.4,0.3,0.6,0.4
		c0.1,0.1,0.2,0.2,0.3,0.3c0.2,0.1,0.4,0.3,0.5,0.5c0.1,0.1,0.2,0.2,0.3,0.3c0.2,0.2,0.4,0.4,0.6,0.5c0.1,0.1,0.2,0.1,0.2,0.2
		c0.3,0.3,0.5,0.5,0.7,0.8l0.1,0.1c0.2,0.2,0.4,0.5,0.6,0.7c0.1,0.1,0.1,0.2,0.2,0.3c0.1,0.2,0.3,0.4,0.4,0.6
		c0.1,0.1,0.1,0.2,0.2,0.4c0.1,0.2,0.2,0.4,0.3,0.6c0.1,0.1,0.1,0.2,0.2,0.4c0.1,0.2,0.2,0.4,0.3,0.6c0.1,0.1,0.1,0.2,0.2,0.4
		c0.1,0.2,0.2,0.5,0.3,0.7c0,0.1,0.1,0.2,0.1,0.3c0.1,0.3,0.3,0.7,0.4,1c0,0.1,0.1,0.2,0.1,0.2c0.1,0.3,0.2,0.5,0.3,0.8
		c0,0.1,0.1,0.3,0.1,0.4c0.1,0.2,0.1,0.5,0.2,0.7c0,0.1,0.1,0.3,0.1,0.4c0.1,0.2,0.1,0.5,0.2,0.7c0,0.1,0.1,0.3,0.1,0.4
		c0,0.2,0.1,0.5,0.1,0.7c0,0.1,0,0.3,0.1,0.4c0,0.3,0.1,0.6,0.1,0.9c0,0.1,0,0.1,0,0.2l0,0c0.5,4.2,0.3,8.6-0.4,12.7
		c-0.6,3.1,1.5,6.1,4.6,6.6h0.1c3.1,0.6,6-1.4,6.7-4.4c0.5-2.2,0.9-4.4,1.1-6.6l0,0c0-0.2,0-0.5,0.1-0.7c0-0.1,0-0.1,0-0.2
		c0-0.6,0.1-1.1,0.1-1.7c0-0.2,0-0.3,0-0.5c0-0.4,0-0.8,0-1.2c0-0.2,0-0.4,0-0.6c0-0.4,0-0.8,0-1.1c0-0.2,0-0.4,0-0.6
		c0-0.4-0.1-0.8-0.1-1.3c0-0.1,0-0.3,0-0.4c0-0.6-0.1-1.1-0.2-1.7c0-0.1,0-0.2-0.1-0.4c-0.1-0.4-0.1-0.9-0.2-1.3
		c0-0.2-0.1-0.4-0.1-0.6c-0.1-0.4-0.1-0.7-0.2-1.1l-2,4.8c-0.6,1.4-2.5,1.5-3.3,0.2c-1.9-3.3-4.9-8.2-7.1-10.9
		c-0.5-0.6-0.5-1.4-0.2-2l1.5-2.8c-3.8-0.8-6.7-0.7-10.8-0.7c0.4,0.2,0.7,0.3,1,0.5C331.7,295.5,331.8,295.5,331.9,295.6z
		 M343,350.9c-2.2-10.2-6.2-33.4-8.4-43.6c-5.7-14.3-24.8-9.3-21.4,5.4l16.5,51.1c4.1,1.6,8.4,2.9,12.6,4c-0.9,3.6-1.8,7.4-2.6,11.3
		c2.6,1.6,5.2,3.2,7.9,4.6c3.9-3.5,8-7.2,10.5-11.7c-0.6-0.4-1.1-0.8-1.7-1.2c-4.3-0.7-8.7-1.5-12.9-2.6c2.9-4.4,6-9,7.4-13.9
		c0.3,0.1,0.6,0.2,0.9,0.4c0.4-6.7,0.9-14.2,1.2-20.8c-2.2,5.7-4.4,11.9-6.5,18.7C345.4,351.9,344.2,351.4,343,350.9z"/>
	<g>
		<path class="st6" d="M216.7,432.5c-2-1.1-4.1-2.1-6.3-2.8c-2.5,7.5-4.7,15-6.1,22.9c-0.3,1.6-2.7,0.9-2.4-0.7
			c1.4-7.8,3.6-15.4,6.1-22.9c-2-0.5-4.1-0.9-6.2-1.1c-3.6,18.3-7.4,36.6-6.8,55h4.7c2.6-12.3,6.9-24.3,11.2-35.9
			C212.7,442.1,214.6,437.3,216.7,432.5z"/>
		<path class="st6" d="M223.2,445.5c1-1.9,1.9-3.7,3-5.6c-0.6-0.6-1.1-1.1-1.7-1.7c-1.8,2.9-3.6,5.8-5.5,8.7
			c-0.9,1.3-3.1,0.1-2.2-1.3c2-3,3.9-6,5.8-9.1c-1.2-1-2.4-1.9-3.7-2.7c-1.9,4.5-3.8,9.1-5.5,13.8c-4.2,11.4-8.4,23.2-11,35.2h3.7
			c1.9-4.3,3.9-8.5,5.7-12.4C215.4,462,219.1,453.7,223.2,445.5z"/>
		<path class="st6" d="M235.7,456.9c-3.6,4.1-6.7,8.5-8.5,13.6c-0.5,1.5-3,0.9-2.4-0.7c2.1-6,5.9-11,10.1-15.7c-1-3-2.4-5.8-4.1-8.4
			c-3.7,7.5-6.9,15.2-10,23c-1.8,4.7-3.6,9.4-5.3,14.1h7.2c4.3-5.8,9.1-11.3,13.9-16.7c0-3-0.3-5.9-0.9-8.8
			C235.8,457.1,235.7,457,235.7,456.9z"/>
		<path class="st6" d="M226.7,448.3c0.8-1.7,1.6-3.3,2.5-5c-0.4-0.5-0.8-1-1.2-1.5c-1.1,2.1-2.2,4.2-3.3,6.4
			c-3.7,7.4-7,14.9-10.4,22.4c-1.7,3.9-3.7,8-5.6,12.2h4.2c1.6-4.4,3.2-8.8,4.9-13.2C220.6,462.5,223.3,455.2,226.7,448.3z"/>
		<path class="st6" d="M199.4,427.7c-0.2,0-0.3,0-0.5,0c-3,0-5.9,0.4-8.8,1.1c-0.7,9.9-1.1,19.8-0.2,29.7c0.1,1.6-2.4,1.6-2.5,0
			c-0.9-9.6-0.6-19.3,0.1-28.9c-3,1-5.8,2.4-8.5,4.1c1.7,16.5,4.1,32.9,7.7,49.1h5.8C192,464.4,195.8,446,199.4,427.7z"/>
		<path class="st6" d="M173.1,438.5c0.9,2.6,1.7,5.2,2.6,7.8c0.6,1.5-1.9,2.2-2.4,0.7c-0.8-2.1-1.5-4.2-2.2-6.4
			c-0.4,0.5-0.9,1-1.3,1.5c5,13.4,9.3,27.1,13.5,40.9h0.9c-3.5-15.6-5.9-31.5-7.5-47.4C175.4,436.3,174.2,437.4,173.1,438.5z"/>
		<path class="st6" d="M162.5,457.8c-0.4,2.2-0.5,4.4-0.5,6.6c1.7,3.5,3.9,6.9,5.6,10.4c1.3,2.7,2.5,5.4,3.7,8.1h4.7
			c-0.2-0.3-0.3-0.6-0.5-1C171.2,473.8,167,465.7,162.5,457.8z"/>
		<path class="st6" d="M501.9,462.5c0-0.1-0.1-0.2-0.1-0.3c-2.7,3.1-5,6.4-6.4,10.2c-0.4,1.1-2.2,0.6-1.8-0.5
			c1.6-4.5,4.4-8.2,7.6-11.8c-0.8-2.2-1.8-4.4-3.1-6.3c-2.8,5.7-5.2,11.4-7.5,17.3c-1.5,3.9-3,7.8-4.4,11.8c0,0.1-0.1,0.2-0.1,0.2
			h4.9l0,0c0.1-0.1,0.1-0.2,0.2-0.2c3.4-4.8,7.4-9.3,11.3-13.7C502.7,466.9,502.5,464.7,501.9,462.5z"/>
		<path class="st6" d="M165.5,448.8c1.8,3.3,3.5,6.6,5.1,10c0.7,1.4-1.5,2.7-2.2,1.3c-1.3-2.8-2.8-5.6-4.2-8.4
			c-0.3,0.8-0.6,1.7-0.9,2.6c5.3,9.2,10.1,18.5,15,27.9c0.1,0.2,0.3,0.5,0.4,0.7h2c-3.9-12.9-7.9-25.8-12.6-38.5
			C167.1,445.8,166.3,447.3,165.5,448.8z"/>
		<path class="st6" d="M485.7,468.1c2.2-4.9,4.4-9.7,6.8-14.5c0.7-1.4,1.5-2.8,2.2-4.2c-0.4-0.4-0.8-0.9-1.3-1.3
			c-1.4,2.2-2.7,4.4-4.2,6.5c-0.7,1-2.3,0.1-1.6-0.9c1.5-2.2,2.9-4.5,4.4-6.8c-0.9-0.7-1.8-1.4-2.8-2.1c-1.2,2.9-2.4,5.7-3.5,8.6
			c-0.2,0.6-0.5,1.1-0.7,1.7c-3.3,8.9-6.6,18.2-8.5,27.6c0,0.1,0,0.2-0.1,0.2h2.5c0-0.1,0.1-0.2,0.1-0.2c1.6-3.6,3.3-7.2,4.8-10.5
			C484.4,470.9,485.1,469.5,485.7,468.1z"/>
		<path class="st6" d="M474.6,440.3c-0.1,0-0.3,0-0.4,0c-2.2,0-4.4,0.3-6.6,0.9c-0.5,7.4-0.8,14.8-0.1,22.3c0.1,1.2-1.8,1.2-1.9,0
			c-0.7-7.2-0.4-14.5,0.1-21.7c-2.2,0.8-4.4,1.8-6.4,3.1c1.3,12.8,3.2,25.5,6.1,38c0,0.1,0,0.2,0.1,0.2h4.1c0-0.1,0-0.2,0-0.2
			C468.9,468.6,471.8,454.4,474.6,440.3z"/>
		<path class="st6" d="M485.7,448.4c0.6-1.5,1.2-3,1.9-4.5c-0.6-0.3-1.2-0.7-1.9-0.9c-0.9-0.4-1.9-0.8-2.9-1.2
			c-1.9,5.6-3.6,11.3-4.6,17.2c-0.2,1.2-2,0.7-1.8-0.5c1-5.9,2.7-11.6,4.6-17.2c-1.5-0.4-3.1-0.7-4.6-0.8
			c-2.8,14.1-5.7,28.3-5.1,42.5c0,0.1,0,0.2,0,0.2h3.2c0-0.1,0-0.2,0.1-0.2c1.9-9.6,5.3-19.1,8.7-28.1
			C484,452.6,484.9,450.5,485.7,448.4z"/>
		<path class="st6" d="M495.1,455.8c0.6-1.2,1.2-2.5,1.8-3.7c-0.3-0.4-0.6-0.8-0.9-1.1c-0.8,1.6-1.7,3.2-2.5,4.8
			c-2.8,5.5-5.3,11.2-7.8,16.8c0,0,0,0.1-0.1,0.1c-1.4,3.2-3.1,6.7-4.7,10.2c0,0.1-0.1,0.2-0.1,0.2h3.3c0-0.1,0.1-0.2,0.1-0.2
			c0.5-1.3,0.9-2.5,1.4-3.8c0.9-2.4,1.8-4.8,2.7-7.3C490.5,466.4,492.6,460.9,495.1,455.8z"/>
		<path class="st6" d="M451.1,452.8c-0.7,1.1-1.4,2.2-2,3.4c1.3,2.5,2.6,5,3.8,7.5c0.5,1.1-1.1,2-1.6,0.9c-1-2.1-2.1-4.2-3.2-6.3
			c-0.2,0.6-0.5,1.3-0.7,1.9c4,6.9,7.6,13.9,11.3,20.9c0.3,0.6,0.6,1.1,0.9,1.7c0,0.1,0.1,0.2,0.1,0.2h1.2c0-0.1,0-0.2-0.1-0.2
			C457.9,472.7,454.8,462.6,451.1,452.8z"/>
		<path class="st6" d="M456.6,481c-3.2-6.1-6.3-12.1-9.7-18.1c-0.3,1.6-0.4,3.3-0.4,4.9c1.3,2.6,2.9,5.2,4.2,7.8
			c1.1,2.4,2.2,4.8,3.3,7.2c0,0.1,0.1,0.2,0.1,0.2h3.6c0-0.1-0.1-0.2-0.1-0.2C457.2,482.2,456.9,481.6,456.6,481z"/>
		<path class="st6" d="M457.5,446c-0.9,0.7-1.9,1.5-2.7,2.3c0.6,2,1.3,3.9,2,5.8c0.4,1.1-1.4,1.6-1.8,0.5c-0.6-1.6-1.1-3.2-1.6-4.8
			c-0.3,0.4-0.6,0.7-0.9,1.1c3.9,10.5,7.2,21.2,10.5,31.9c0,0.1,0,0.2,0.1,0.2h0.6c0-0.1,0-0.2-0.1-0.2
			C460.7,470.7,458.8,458.4,457.5,446z"/>
	</g>
	<g>
		<path class="st0" d="M434.4,346.6h-19l-17.1,26.7l3.2,0.2c0.8-2.3,2.8-3.9,5.2-4.3l11.1-17.3h34.1L432,383h-34.1l3.4-5.3
			c0-0.1-0.1-0.3-0.1-0.4l-5.2-0.4l-7.3,11.4v3.1v0.8v1.8c1,0.9,1.9,1.8,2.7,2.8c2.1,1.7,3.4,4.8,3.6,7.4c0,0.4-0.6,0.6-0.7,0.2
			c-0.6-1.5-1.3-3-2.2-4.3c0,0,0,0-0.1-0.1c0,0.1-0.1,0.2-0.1,0.3c1.3,1.7,2,4,2.2,5.9c0,0.4-0.6,0.6-0.7,0.2
			c-0.6-1.5-1.3-3-2.2-4.3c-0.1-0.2-0.2-0.3-0.4-0.5l0,0c1,1.6,1.6,3.5,1.7,5.2c0,0.4-0.6,0.6-0.7,0.2c-0.6-1.5-1.3-3-2.2-4.3
			c-0.1-0.1-0.1-0.1-0.2-0.2c-0.1,0-0.2,0.1-0.2,0.1c0.8,1.5,1.3,3.2,1.4,4.7c0,0.4-0.6,0.6-0.7,0.2c-0.4-1-0.8-1.9-1.3-2.8v1.1
			c0.3,1.4,0.4,2.8,0,4.3v69c1.3,0.7,2.3,1.8,3,3.1l0.2,0.4h42.6v-94.5l26.7-41.7h-26.7V346.6z"/>
	</g>
	<path id="color_x5F_2_1_" class="st7" d="M485.6,482.8V479c-0.5,1.3-0.9,2.5-1.4,3.8H485.6z M474.5,482.8h1.9
		c1.9-9.5,5.2-18.7,8.5-27.6c0.2-0.6,0.4-1.1,0.7-1.7v-5.1c-0.9,2.1-1.7,4.2-2.5,6.4C479.7,463.8,476.4,473.2,474.5,482.8z
		 M434.3,482.8h19.5c-1.1-2.4-2.1-4.8-3.3-7.2c-1.3-2.7-2.9-5.2-4.2-7.8c0-1.6,0.1-3.3,0.4-4.9c3.4,6,6.5,12,9.7,18.1
		c0.3,0.6,0.7,1.3,1,1.9h2.1c-0.3-0.6-0.6-1.1-0.9-1.7c-3.7-7-7.3-14.1-11.3-20.9c0.2-0.6,0.4-1.3,0.7-1.9c1.1,2.1,2.2,4.2,3.2,6.3
		c0.5,1.1,2.1,0.1,1.6-0.9c-1.2-2.5-2.5-5-3.8-7.5c0.6-1.2,1.2-2.3,2-3.4c3.7,9.9,6.8,20,9.8,30.1h1.9c-3.3-10.7-6.5-21.4-10.5-31.9
		c0.3-0.4,0.6-0.7,0.9-1.1c0.5,1.6,1.1,3.2,1.6,4.8c0.4,1.1,2.2,0.6,1.8-0.5c-0.7-1.9-1.3-3.9-2-5.8c0.9-0.8,1.8-1.6,2.7-2.3
		c1.3,12.4,3.1,24.7,5.9,36.8h1.9c-2.9-12.5-4.8-25.2-6.1-38c2-1.3,4.1-2.3,6.4-3.1c-0.5,7.2-0.8,14.5-0.1,21.7c0.1,1.2,2,1.2,1.9,0
		c-0.7-7.4-0.4-14.9,0.1-22.3c2.1-0.6,4.4-0.9,6.6-0.9c0.1,0,0.3,0,0.4,0c-2.7,14.2-5.7,28.4-5.1,42.6h1.9
		c-0.6-14.2,2.3-28.4,5.1-42.5c1.6,0.1,3.1,0.4,4.6,0.8c-1.9,5.6-3.6,11.3-4.6,17.2c-0.2,1.2,1.6,1.7,1.8,0.5
		c1-5.9,2.7-11.6,4.6-17.2c1,0.3,1.9,0.7,2.9,1.2v-67.4v-1.2v-27.7h-24.6l-26.5,41.6V482.8z M478.9,482.8h2
		c1.5-3.5,3.2-6.9,4.7-10.2V468c-0.6,1.4-1.3,2.8-1.9,4.3C482.2,475.7,480.5,479.2,478.9,482.8z M431.9,383l19.9-31.1h-34.1
		l-11.1,17.3c0.5-0.1,1.1-0.1,1.6-0.1c3.1,0.2,5.5,2.5,6.1,5.4l-8.2-0.6l-0.3,3.7l8.2,0.6c-1,2.8-3.8,4.6-6.9,4.4
		c-2.9-0.2-5.3-2.3-6-5l-3.4,5.3L431.9,383L431.9,383z"/>
	<path id="color_x5F_2_2_" class="st8" d="M388.7,479.3c-0.7-0.4-1.4-0.7-2.2-0.8l-5.2-1c-2.7-0.5-5.9-1.4-7.5-3.6l-3-4.2l-0.6,0.5
		l-2.4,1.9c-0.8,0.7-1.8,1.1-2.9,1.1l-4.5,0.3l-1,0.1c0,0-2.3,5.1-3,9.4c0,0.3-0.1,0.5-0.1,0.8c-0.1,0.7,0.5,0.5,1.1,0.5h34.4
		c0.5,0,0.9,0.2,0.7-0.3l-0.5-1l-0.2-0.4C390.9,481.1,389.9,480,388.7,479.3z M277.4,484.2L277.4,484.2h2.8c0.5,0,0.9-0.6,0.7-1.1
		l-0.1-0.3l-0.6-1.2c-1-2.1-2.9-3.5-5.2-4l-0.5-0.1c-0.6-1.9-1-3.8-0.4-5.6l1.9-3.8l-0.8-0.4L272,466c-1-0.3-1.9-0.9-2.6-1.7l-2.5-3
		l-1-1.3c0,0-6.2,1.3-10.1,3.6c-0.6,0.3-0.8,1.1-0.4,1.7l12.9,17.5l1,1.4H277.4L277.4,484.2z"/>
	<path class="st3" d="M373.8,279.6l5.1,0.8l3.8,0.6l-3.8-5.2l-0.8-7c-0.9-8.1-7.9-14.1-16-13.8c-1.2,0-2.6,0.1-4.2,0.3
		c-9.7,1.2-16.3,10.2-14.6,19.8l2,0.3l12.1,1.8L373.8,279.6z"/>
</g>
<rect x="176.5" y="195.6" class="st9" width="326.1" height="33.9"/>
<text transform="matrix(1 0 0 1 -0.5637 227.1397)" class="st10 st11">Couldn’t find what you’re looking for</text>
</svg>
